<svg xmlns="http://www.w3.org/2000/svg" viewBox="0 0 1920 1080" width="1920" height="1080" preserveAspectRatio="xMidYMid slice">
<defs>
<linearGradient id="a17sbg6fs" x1="0" y1="0" x2="0" y2="1"><stop offset="0" stop-color="#0b2221"/><stop offset="1" stop-color="#10302d"/></linearGradient>
<linearGradient id="a17sbg6ff" x1="0" y1="0" x2="0" y2="1"><stop offset="0" stop-color="#fff" stop-opacity="0.25"/><stop offset="0.35" stop-color="#fff" stop-opacity="1"/></linearGradient>
<clipPath id="a17sbg6fc"><path d="M0 1080L0 350.3L0 350.3L20 356.6L40 362.9L60 369.3L80 375.6L100 381.8L120 387.8L140 393.7L160 399.3L180 404.7L200 409.8L220 414.5L240 418.8L260 422.6L280 426.1L300 429L320 431.5L340 433.4L360 434.8L380 435.6L400 436L420 435.7L440 435L460 433.6L480 431.8L500 429.5L520 426.7L540 423.4L560 419.7L580 415.6L600 411.2L620 406.4L640 401.4L660 396.1L680 390.6L700 385L720 379.2L740 373.4L760 367.6L780 361.8L800 356.2L820 350.6L840 345.2L860 340.1L880 335.2L900 330.5L920 326.3L940 322.3L960 318.8L980 315.7L1000 313L1020 310.8L1040 309.1L1060 307.8L1080 307L1100 306.7L1120 306.9L1140 307.5L1160 308.6L1180 310.2L1200 312.1L1220 314.5L1240 317.3L1260 320.4L1280 323.8L1300 327.5L1320 331.5L1340 335.6L1360 339.9L1380 344.4L1400 348.9L1420 353.5L1440 358L1460 362.5L1480 366.9L1500 371.2L1520 375.3L1540 379.2L1560 382.8L1580 386.2L1600 389.3L1620 392L1640 394.4L1660 396.4L1680 397.9L1700 399.1L1720 399.9L1740 400.2L1760 400.1L1780 399.6L1800 398.7L1820 397.4L1840 395.6L1860 393.5L1880 391.1L1900 388.3L1920 385.2L1940 381.9L1920 1080Z"/></clipPath>
<mask id="a17sbg6fm"><rect x="0" y="296.7" width="1920" height="783.3" fill="url(#a17sbg6ff)"/></mask>
</defs>
<rect width="1920" height="1080" fill="url(#a17sbg6fs)"/>
<path d="M0 416.4L0 251L20 250.6L40 249.8L60 248.8L80 247.5L100 245.9L120 244.1L140 242.2L160 240.1L180 238L200 235.7L220 233.4L240 231.2L260 229L280 226.9L300 224.8L320 223L340 221.3L360 219.8L380 218.5L400 217.5L420 216.7L440 216.2L460 216L480 216L500 216.2L520 216.8L540 217.5L560 218.5L580 219.7L600 221.1L620 222.6L640 224.2L660 225.9L680 227.6L700 229.4L720 231.1L740 232.8L760 234.3L780 235.7L800 237L820 238L840 238.7L860 239.2L880 239.4L900 239.2L920 238.7L940 237.9L960 236.6L980 235L1000 233L1020 230.6L1040 227.9L1060 224.8L1080 221.4L1100 217.6L1120 213.6L1140 209.4L1160 204.9L1180 200.3L1200 195.5L1220 190.7L1240 185.8L1260 181L1280 176.2L1300 171.5L1320 167L1340 162.7L1360 158.7L1380 154.9L1400 151.5L1420 148.5L1440 145.9L1460 143.7L1480 142L1500 140.9L1520 140.2L1540 140L1560 140.4L1580 141.3L1600 142.7L1620 144.6L1640 147.1L1660 150L1680 153.3L1700 157.1L1720 161.2L1740 165.7L1760 170.5L1780 175.6L1800 180.8L1820 186.2L1840 191.8L1860 197.4L1880 203L1900 208.6L1920 214.1L1940 219.4L1920 416.4Z" fill="#133431"/><path d="M0 416.4L0 215.6L20 218.7L40 222L60 225.4L80 229.1L100 232.9L120 236.8L140 240.9L160 245.1L180 249.3L200 253.7L220 258.1L240 262.6L260 267.1L280 271.7L300 276.2L320 280.7L340 285.2L360 289.6L380 293.9L400 298.2L420 302.3L440 306.4L460 310.3L480 314L500 317.6L520 321L540 324.2L560 327.2L580 329.9L600 332.5L620 334.8L640 336.9L660 338.7L680 340.2L700 341.5L720 342.5L740 343.2L760 343.7L780 343.8L800 343.7L820 343.4L840 342.7L860 341.8L880 340.6L900 339.2L920 337.5L940 335.5L960 333.4L980 331L1000 328.3L1020 325.5L1040 322.5L1060 319.4L1080 316L1100 312.5L1120 308.9L1140 305.2L1160 301.4L1180 297.4L1200 293.5L1220 289.4L1240 285.4L1260 281.3L1280 277.2L1300 273.1L1320 269.1L1340 265.1L1360 261.2L1380 257.3L1400 253.6L1420 249.9L1440 246.4L1460 243L1480 239.8L1500 236.7L1520 233.8L1540 231L1560 228.5L1580 226.1L1600 224L1620 222L1640 220.2L1660 218.7L1680 217.4L1700 216.2L1720 215.3L1740 214.6L1760 214.2L1780 213.9L1800 213.8L1820 214L1840 214.3L1860 214.8L1880 215.5L1900 216.4L1920 217.4L1940 218.6L1920 416.4Z" fill="#163b37"/><path d="M0 416.4L0 244.5L20 247.2L40 250.6L60 254.7L80 259.4L100 264.8L120 270.7L140 277.1L160 283.9L180 291.1L200 298.6L220 306.4L240 314.3L260 322.2L280 330.1L300 338L320 345.7L340 353.1L360 360.2L380 367L400 373.3L420 379L440 384.3L460 388.9L480 392.9L500 396.3L520 398.9L540 400.9L560 402.2L580 402.7L600 402.6L620 401.8L640 400.4L660 398.4L680 395.8L700 392.7L720 389.1L740 385.1L760 380.7L780 376L800 371.1L820 366L840 360.8L860 355.5L880 350.2L900 345L920 339.9L940 335L960 330.2L980 325.7L1000 321.4L1020 317.5L1040 313.9L1060 310.6L1080 307.6L1100 305L1120 302.8L1140 300.8L1160 299.2L1180 297.9L1200 296.9L1220 296.1L1240 295.5L1260 295L1280 294.8L1300 294.6L1320 294.5L1340 294.4L1360 294.3L1380 294.1L1400 293.9L1420 293.5L1440 293L1460 292.4L1480 291.6L1500 290.5L1520 289.3L1540 287.9L1560 286.3L1580 284.5L1600 282.6L1620 280.5L1640 278.2L1660 275.9L1680 273.5L1700 271.1L1720 268.7L1740 266.4L1760 264.1L1780 262.1L1800 260.2L1820 258.5L1840 257.2L1860 256.2L1880 255.5L1900 255.2L1920 255.4L1940 256L1920 416.4Z" fill="#19423e"/><path d="M0 416.4L0 350.3L20 356.6L40 362.9L60 369.3L80 375.6L100 381.8L120 387.8L140 393.7L160 399.3L180 404.7L200 409.8L220 414.5L240 418.8L260 422.6L280 426.1L300 429L320 431.5L340 433.4L360 434.8L380 435.6L400 436L420 435.7L440 435L460 433.6L480 431.8L500 429.5L520 426.7L540 423.4L560 419.7L580 415.6L600 411.2L620 406.4L640 401.4L660 396.1L680 390.6L700 385L720 379.2L740 373.4L760 367.6L780 361.8L800 356.2L820 350.6L840 345.2L860 340.1L880 335.2L900 330.5L920 326.3L940 322.3L960 318.8L980 315.7L1000 313L1020 310.8L1040 309.1L1060 307.8L1080 307L1100 306.7L1120 306.9L1140 307.5L1160 308.6L1180 310.2L1200 312.1L1220 314.5L1240 317.3L1260 320.4L1280 323.8L1300 327.5L1320 331.5L1340 335.6L1360 339.9L1380 344.4L1400 348.9L1420 353.5L1440 358L1460 362.5L1480 366.9L1500 371.2L1520 375.3L1540 379.2L1560 382.8L1580 386.2L1600 389.3L1620 392L1640 394.4L1660 396.4L1680 397.9L1700 399.1L1720 399.9L1740 400.2L1760 400.1L1780 399.6L1800 398.7L1820 397.4L1840 395.6L1860 393.5L1880 391.1L1900 388.3L1920 385.2L1940 381.9L1920 416.4Z" fill="#1d4a45"/>
<path d="M0 1080L0 350.3L0 350.3L20 356.6L40 362.9L60 369.3L80 375.6L100 381.8L120 387.8L140 393.7L160 399.3L180 404.7L200 409.8L220 414.5L240 418.8L260 422.6L280 426.1L300 429L320 431.5L340 433.4L360 434.8L380 435.6L400 436L420 435.7L440 435L460 433.6L480 431.8L500 429.5L520 426.7L540 423.4L560 419.7L580 415.6L600 411.2L620 406.4L640 401.4L660 396.1L680 390.6L700 385L720 379.2L740 373.4L760 367.6L780 361.8L800 356.2L820 350.6L840 345.2L860 340.1L880 335.2L900 330.5L920 326.3L940 322.3L960 318.8L980 315.7L1000 313L1020 310.8L1040 309.1L1060 307.8L1080 307L1100 306.7L1120 306.9L1140 307.5L1160 308.6L1180 310.2L1200 312.1L1220 314.5L1240 317.3L1260 320.4L1280 323.8L1300 327.5L1320 331.5L1340 335.6L1360 339.9L1380 344.4L1400 348.9L1420 353.5L1440 358L1460 362.5L1480 366.9L1500 371.2L1520 375.3L1540 379.2L1560 382.8L1580 386.2L1600 389.3L1620 392L1640 394.4L1660 396.4L1680 397.9L1700 399.1L1720 399.9L1740 400.2L1760 400.1L1780 399.6L1800 398.7L1820 397.4L1840 395.6L1860 393.5L1880 391.1L1900 388.3L1920 385.2L1940 381.9L1920 1080Z" fill="#0e2826"/>
<g clip-path="url(#a17sbg6fc)" mask="url(#a17sbg6fm)" fill="none" stroke="#7fd8c1" stroke-linejoin="round" stroke-linecap="round">
<path d="M1809.2 296.7L1820 306.5L1832.5 316.3L1840 321.5L1860 333.5L1864.6 335.9L1880 343.2L1900 351.5L1910.7 355.4L1920 358.6M1701.1 1080L1704.3 1060.4L1709 1040.8L1715.5 1021.3L1720 1010.8L1724.3 1001.7L1736.2 982.1L1740 977L1752.2 962.5L1760 954.8L1773.9 942.9L1780 938.5L1800 925.7L1804.2 923.3L1820 915.5L1840 906.8L1848.1 903.8L1860 899.5L1880 893.2L1900 887.6L1913.7 884.2L1920 882.6M1669.3 296.7L1676.6 316.3L1680 324L1685.7 335.9L1697.1 355.4L1700 359.8L1711.8 375L1720 384.2L1731.1 394.6L1740 402L1757.3 414.2L1760 415.9L1780 427.2L1793.4 433.8L1800 436.9L1820 445.4L1840 453.2L1840.4 453.3L1860 460.9L1880 468.3L1892.4 472.9L1900 476L1920 484.3M1404.3 668.8L1420 661.5L1440 660.2L1460 666.3L1463.8 668.8L1480 685.1L1482.4 688.3L1489.6 707.9L1489.5 727.5L1480 743.2L1474.4 747.1L1460 751.4L1440 750.7L1428.3 747.1L1420 743.8L1400 728.7L1398.9 727.5L1390.2 707.9L1390.9 688.3L1400 672.4L1404.3 668.8M1578.1 1080L1580 1065L1580.6 1060.4L1582.7 1040.8L1584.5 1021.3L1586.2 1001.7L1587.8 982.1L1589.5 962.5L1591.4 942.9L1593.8 923.3L1597.2 903.8L1600 892.4L1602.5 884.2L1611.5 864.6L1620 853.5L1629.2 845L1640 837.9L1660 828.6L1668.6 825.4L1680 821.9L1700 816.4L1720 811.6L1740 807.3L1746.5 805.8L1760 803L1780 798.8L1800 794.6L1820 790.3L1837.8 786.3L1840 785.7L1860 780.7L1880 775.3L1900 769.4L1908.3 766.7L1920 762.5M1560.7 296.7L1560.3 316.3L1560 321.7L1559 335.9L1556.6 355.4L1552.6 375L1546.3 394.6L1540 408.1L1536.8 414.2L1522.2 433.8L1520 436L1500 453.2L1499.8 453.3L1480 466L1467.5 472.9L1460 476.6L1440 486.3L1427.1 492.5L1420 495.7L1400 505.4L1387.1 512.1L1380 515.7L1360 527.3L1353.5 531.7L1340 540.9L1326.9 551.3L1320 557L1306.1 570.8L1300 577.6L1290.1 590.4L1280 605.9L1277.7 610L1268.8 629.6L1262.2 649.2L1260 659.1L1258.2 668.8L1256.5 688.3L1256.8 707.9L1259.1 727.5L1260 731.4L1263.9 747.1L1270.9 766.7L1279.7 786.3L1280 786.8L1291.9 805.8L1300 817.5L1306.4 825.4L1320 841.2L1323.8 845L1340 861.1L1343.9 864.6L1360 879.2L1365.9 884.2L1380 896.8L1388.1 903.8L1400 915.2L1408.5 923.3L1420 936.2L1425.8 942.9L1439.5 962.5L1440 963.3L1450 982.1L1457.3 1001.7L1460 1012.4L1462.1 1021.3L1464.7 1040.8L1465.1 1060.4L1463.6 1080M0 455.2L12.5 472.9L20 484.5L24.8 492.5L35.1 512.1L40 522.9L43.6 531.7L50.1 551.3L55 570.8L58.2 590.4L60 610L60 616.1L60.1 629.6L60 631.1L58.8 649.2L56 668.8L51.8 688.3L46.3 707.9L40 726.6L39.7 727.5L31.2 747.1L21.8 766.7L20 770.1L10.8 786.3L0 804.5M166.4 296.7L166.8 316.3L168.7 335.9L171.5 355.4L174.7 375L178 394.6L180 406.6L181.1 414.2L184 433.8L186.4 453.3L188.5 472.9L190.1 492.5L191.4 512.1L192.1 531.7L192.5 551.3L192.4 570.8L191.9 590.4L190.9 610L189.6 629.6L187.9 649.2L185.8 668.8L183.3 688.3L180.5 707.9L180 710.8L177.2 727.5L173.5 747.1L169.5 766.7L165.3 786.3L160.8 805.8L160 809.5L156.1 825.4L151.3 845L146.6 864.6L142.1 884.2L140 894.9L138.1 903.8L134.8 923.3L132.6 942.9L131.9 962.5L133.1 982.1L136.7 1001.7L140 1011.9L143.2 1021.3L153.1 1040.8L160 1050.9L167 1060.4L180 1074.6L185.2 1080M1353.6 296.7L1343.8 316.3L1340 322.2L1331.2 335.9L1320 350.3L1316.1 355.4L1300 373.8L1299 375L1280.8 394.6L1280 395.4L1262.5 414.2L1260 416.8L1245 433.8L1240 439.4L1228.9 453.3L1220 464.8L1214.3 472.9L1201.4 492.5L1200 494.8L1190.5 512.1L1180.8 531.7L1180 533.5L1172.9 551.3L1166.2 570.8L1160.5 590.4L1160 592.6L1156.2 610L1152.9 629.6L1150.5 649.2L1149 668.8L1148.5 688.3L1148.8 707.9L1150 727.5L1152 747.1L1154.9 766.7L1158.7 786.3L1160 792.2L1163.4 805.8L1169 825.4L1175.4 845L1180 858L1182.6 864.6L1190.6 884.2L1199.1 903.8L1200 906L1208.2 923.3L1217.1 942.9L1220 949.7L1225.9 962.5L1233.9 982.1L1240 1000.4L1240.5 1001.7L1245.4 1021.3L1247.9 1040.8L1247.7 1060.4L1244.2 1080M317.7 1080L300 1066L293.2 1060.4L280 1048.1L272.7 1040.8L260 1026.2L256 1021.3L242.9 1001.7L240 996.3L232.9 982.1L225.8 962.5L220.9 942.9L220 937.3L217.8 923.3L216.2 903.8L215.8 884.2L216.3 864.6L217.3 845L218.9 825.4L220 814.5L220.8 805.8L222.8 786.3L225 766.7L227.3 747.1L229.5 727.5L231.8 707.9L234 688.3L236.1 668.8L238.2 649.2L240 632L240.2 629.6L242.2 610L244 590.4L245.8 570.8L247.7 551.3L249.5 531.7L251.5 512.1L253.6 492.5L255.9 472.9L258.5 453.3L260 443.9L261.7 433.8L265.5 414.2L270.3 394.6L276.6 375L280 366.3L284.8 355.4L295.7 335.9L300 329.7L310.7 316.3L320 306.6L331.3 296.7M1239.1 296.7L1230.8 316.3L1220.7 335.9L1220 337L1209.5 355.4L1200 370.9L1197.7 375L1186.1 394.6L1180 404.9L1175 414.2L1164.8 433.8L1160 443.2L1155.4 453.3L1147 472.9L1140 491L1139.5 492.5L1133 512.1L1127.4 531.7L1122.5 551.3L1120 562.8L1118.4 570.8L1115.1 590.4L1112.4 610L1110.3 629.6L1108.9 649.2L1108.1 668.8L1107.8 688.3L1108.2 707.9L1109.1 727.5L1110.5 747.1L1112.6 766.7L1115.1 786.3L1118.2 805.8L1120 815.9L1121.8 825.4L1126 845L1130.6 864.6L1135.4 884.2L1140 902.4L1140.4 903.8L1145.6 923.3L1150.5 942.9L1154.9 962.5L1158.5 982.1L1160 995.3L1160.8 1001.7L1161.5 1021.3L1160 1039.9L1159.9 1040.8L1155.7 1060.4L1148.3 1080M439.4 1080L420 1067.8L409 1060.4L400 1054.1L382.1 1040.8L380 1039.1L360 1022.1L359 1021.3L340 1002.2L339.5 1001.7L323.5 982.1L320 977.1L310.5 962.5L300.2 942.9L300 942.4L292.2 923.3L286.2 903.8L281.8 884.2L280 873.4L278.6 864.6L276.5 845L275.3 825.4L274.8 805.8L274.8 786.3L275.3 766.7L276.2 747.1L277.3 727.5L278.8 707.9L280 694L280.5 688.3L282.3 668.8L284.4 649.2L286.7 629.6L289.3 610L292.1 590.4L295.2 570.8L298.7 551.3L300 544.7L302.6 531.7L307.1 512.1L312.3 492.5L318.4 472.9L320 468.4L325.6 453.3L334.3 433.8L340 422.8L344.9 414.2L358.1 394.6L360 392.1L374.7 375L380 369.6L396 355.4L400 352.3L420 338.2L423.9 335.9L440 326.6L460 316.7L461 316.3L480 308L500 300.5L511.1 296.7M1104.1 296.7L1107.7 316.3L1108.5 335.9L1107.3 355.4L1104.9 375L1101.8 394.6L1100 404.2L1098.3 414.2L1094.8 433.8L1091.3 453.3L1088 472.9L1084.9 492.5L1082 512.1L1080 526.8L1079.4 531.7L1077.2 551.3L1075.2 570.8L1073.6 590.4L1072.3 610L1071.4 629.6L1070.7 649.2L1070.4 668.8L1070.5 688.3L1070.8 707.9L1071.5 727.5L1072.5 747.1L1073.8 766.7L1075.4 786.3L1077.2 805.8L1079.3 825.4L1080 831.6L1081.6 845L1084 864.6L1086.3 884.2L1088.6 903.8L1090.5 923.3L1091.8 942.9L1092.4 962.5L1091.8 982.1L1089.7 1001.7L1085.6 1021.3L1080 1037.9L1078.9 1040.8L1069.1 1060.4L1060 1074L1055.6 1080M719.4 355.4L720 355.4L740 354.1L760 353.6L780 353.8L800 355L804.3 355.4L820 357.1L840 360.5L860 365.3L880 372L887.1 375L900 381.2L920 393.9L920.8 394.6L940 412.3L941.7 414.2L956 433.8L960 440.7L966.3 453.3L974.1 472.9L980 492.5L980 492.5L984.5 512.1L988 531.7L990.7 551.3L992.8 570.8L994.6 590.4L995.9 610L997 629.6L997.9 649.2L998.6 668.8L999.2 688.3L999.6 707.9L999.9 727.5L1000 742.1L1000 747.1L1000 766.7L1000 770.3L999.8 786.3L999.4 805.8L998.6 825.4L997.3 845L995.5 864.6L993 884.2L989.5 903.8L984.7 923.3L980 938L978.2 942.9L969.5 962.5L960 979L958 982.1L942.3 1001.7L940 1004.1L920.7 1021.3L920 1021.8L900 1034.9L888.8 1040.8L880 1045.1L860 1052.9L840 1058.9L832.9 1060.4L820 1063.2L800 1066.1L780 1067.7L760 1068.2L740 1067.5L720 1065.8L700 1063.1L685.3 1060.4L680 1059.5L660 1055L640 1049.6L620 1043.3L613.2 1040.8L600 1036.1L580 1028.1L564.8 1021.3L560 1019L540 1009L526.8 1001.7L520 997.7L500 985.1L495.6 982.1L480 970.7L469.7 962.5L460 954.1L448.2 942.9L440 934.4L430.3 923.3L420 910L415.5 903.8L403.5 884.2L400 877.6L393.6 864.6L385.8 845L380 826.9L379.6 825.4L374.8 805.8L371.2 786.3L368.7 766.7L367.2 747.1L366.6 727.5L366.7 707.9L367.7 688.3L369.3 668.8L371.7 649.2L374.9 629.6L378.9 610L380 605.4L383.8 590.4L389.7 570.8L396.8 551.3L400 543.5L405.3 531.7L415.4 512.1L420 504.4L427.7 492.5L440 476L442.5 472.9L460 454.1L460.8 453.3L480 436.6L483.8 433.8L500 422.3L513.2 414.2L520 410.2L540 400.1L552.3 394.6L560 391.3L580 383.8L600 377.4L608.7 375L620 371.9L640 367.1L660 363.2L680 359.9L700 357.3L719.4 355.4M639.9 414.2L640 414.2L660 409.9L680 406.7L700 404.4L720 403.1L740 402.8L760 403.5L780 405.5L800 408.8L820 413.7L821.4 414.2L840 420.7L860 430.2L866 433.8L880 443.3L891.7 453.3L900 461.6L909.4 472.9L920 488.5L922.3 492.5L932 512.1L939.6 531.7L940 532.9L945.4 551.3L950 570.8L953.7 590.4L956.7 610L959 629.6L960 641L960.7 649.2L962 668.8L962.8 688.3L963.3 707.9L963.3 727.5L963 747.1L962.3 766.7L961.1 786.3L960 798.2L959.3 805.8L956.7 825.4L953.4 845L948.9 864.6L943.2 884.2L940 893.2L935.7 903.8L925.8 923.3L920 932.7L912.6 942.9L900 957.4L894.6 962.5L880 974.7L868.7 982.1L860 987.3L840 996.6L825.5 1001.7L820 1003.5L800 1008.2L780 1011.3L760 1012.9L740 1013.1L720 1012L700 1009.8L680 1006.5L660 1002L658.6 1001.7L640 996.6L620 990L600 982.2L599.7 982.1L580 973.3L560 963L559.2 962.5L540 951.1L527.9 942.9L520 937.3L502.6 923.3L500 921.1L482 903.8L480 901.5L465.3 884.2L460 877L451.6 864.6L440.4 845L440 844.2L431.5 825.4L424.5 805.8L420 789.9L419 786.3L415.1 766.7L412.4 747.1L410.9 727.5L410.5 707.9L411.2 688.3L412.8 668.8L415.5 649.2L419.3 629.6L420 626.6L424.3 610L430.5 590.4L438.2 570.8L440 566.9L447.7 551.3L459.2 531.7L460 530.5L473.4 512.1L480 504.2L490.9 492.5L500 483.8L512.9 472.9L520 467.4L540 454L541.1 453.3L560 442.9L579.7 433.8L580 433.6L600 425.9L620 419.5L639.9 414.2M683.9 453.3L700 451.7L720 451L740 451.7L754.8 453.3L760 454L780 458L800 464L820 472.5L820.8 472.9L840 484.5L850.3 492.5L860 501.2L869.9 512.1L880 525.3L884.1 531.7L894.8 551.3L900 563.1L903 570.8L909.3 590.4L914.2 610L918.1 629.6L920 642.4L920.9 649.2L922.9 668.8L924.1 688.3L924.6 707.9L924.4 727.5L923.5 747.1L921.8 766.7L920 781.1L919.3 786.3L915.6 805.8L910.8 825.4L904.5 845L900 856.3L896.2 864.6L885.2 884.2L880 891.9L870.3 903.8L860 914.5L849.5 923.3L840 930.3L820 941.6L816.8 942.9L800 949.4L780 954.8L760 958.1L740 959.5L720 959.3L700 957.6L680 954.5L660 950.1L640 944.2L636.3 942.9L620 936.9L600 928L591 923.3L580 917.3L560 904.7L558.7 903.8L540 889.2L534.2 884.2L520 870.3L514.7 864.6L500 846.3L499.1 845L486.8 825.4L480 812.4L476.9 805.8L469.3 786.3L463.6 766.7L460 749.6L459.5 747.1L457.1 727.5L456.1 707.9L456.5 688.3L458.3 668.8L460 657.9L461.5 649.2L466.2 629.6L472.5 610L480 591.6L480.5 590.4L490.9 570.8L500 556.7L503.8 551.3L519.9 531.7L520 531.6L540 512.7L540.7 512.1L560 497.8L568.4 492.5L580 485.7L600 475.9L607.4 472.9L620 468.1L640 461.9L660 457.2L680 453.8L683.9 453.3M658.3 570.8L660 570.2L680 565.4L700 563.5L720 564.6L740 568.8L745.5 570.8L760 577.2L780 590.4L780 590.4L798.2 610L800 612.5L809.9 629.6L818.2 649.2L820 655.2L823.3 668.8L826 688.3L826.6 707.9L825.2 727.5L821.7 747.1L820 753L815.2 766.7L805.4 786.3L800 794.4L790.3 805.8L780 815.4L764.9 825.4L760 828.2L740 835.3L720 838.7L700 838.8L680 835.8L660 830L649.5 825.4L640 820.7L620 807.6L617.8 805.8L600 788.5L598 786.3L584.6 766.7L580 757.8L575.3 747.1L569.6 727.5L566.8 707.9L566.8 688.3L569.8 668.8L575.7 649.2L580 639.7L585.4 629.6L599.3 610L600 609.3L620 590.9L620.7 590.4L640 578.8L658.3 570.8" stroke-opacity="0.26" stroke-width="1.1"/>
<path d="M21 296.7L29.7 316.3L40 335.8L40.1 335.9L51.4 355.4L60 369.7L63.1 375L74.5 394.6L80 404.2L85.3 414.2L95.1 433.8L100 444.3L103.8 453.3L111.2 472.9L117.5 492.5L120 501.7L122.6 512.1L126.5 531.7L129.4 551.3L131.3 570.8L132.4 590.4L132.5 610L131.9 629.6L130.4 649.2L128.1 668.8L125 688.3L121.2 707.9L120 713.4L116.5 727.5L111 747.1L104.9 766.7L100 780.8L98 786.3L90.2 805.8L82.1 825.4L80 830.5L73.4 845L64.5 864.6L60 874.8L55.6 884.2L47 903.8L40 921.5L39.2 923.3L32.4 942.9L27.2 962.5L23.9 982.1L22.7 1001.7L24.1 1021.3L28.4 1040.8L36 1060.4L40 1067.6L47.3 1080M1458.6 296.7L1452.4 316.3L1443.6 335.9L1440 342L1431.8 355.4L1420 370.7L1416.5 375L1400 392.1L1397.6 394.6L1380 410.1L1375.3 414.2L1360 426.3L1350.8 433.8L1340 442L1325.9 453.3L1320 457.9L1302.1 472.9L1300 474.7L1280.9 492.5L1280 493.4L1262.6 512.1L1260 515.1L1247.1 531.7L1240 541.8L1234.1 551.3L1223.3 570.8L1220 577.7L1214.6 590.4L1207.8 610L1202.4 629.6L1200 641.6L1198.6 649.2L1196.4 668.8L1195.4 688.3L1195.7 707.9L1197.3 727.5L1200 746.4L1200.1 747.1L1204.5 766.7L1210.2 786.3L1217 805.8L1220 813.2L1225.5 825.4L1235.4 845L1240 853.5L1246.8 864.6L1259.2 884.2L1260 885.4L1273.2 903.8L1280 913.5L1287.5 923.3L1300 940.6L1301.8 942.9L1315.6 962.5L1320 969.9L1327.8 982.1L1337.7 1001.7L1340 1007.7L1345.2 1021.3L1349.9 1040.8L1351.5 1060.4L1350.1 1080M566.2 1080L560 1077.4L540 1068.3L524.2 1060.4L520 1058.3L500 1047.6L488.4 1040.8L480 1035.8L460 1023L457.5 1021.3L440 1008.6L431.1 1001.7L420 992.3L408.8 982.1L400 973.3L390 962.5L380 950.2L374.5 942.9L361.8 923.3L360 920L351.5 903.8L343.3 884.2L340 874.3L336.9 864.6L331.9 845L328.2 825.4L325.5 805.8L323.7 786.3L322.7 766.7L322.3 747.1L322.5 727.5L323.3 707.9L324.5 688.3L326.3 668.8L328.5 649.2L331.2 629.6L334.4 610L338.2 590.4L340 582.2L342.6 570.8L347.8 551.3L353.8 531.7L360 514.7L361 512.1L369.4 492.5L379.5 472.9L380 472L391.7 453.3L400 441.8L406.5 433.8L420 418.9L424.8 414.2L440 400.7L447.9 394.6L460 385.9L477.5 375L480 373.5L500 363L516.6 355.4L520 353.9L540 346L560 339L570.2 335.9L580 332.8L600 327.3L620 322.4L640 318L649.1 316.3L660 314.1L680 310.5L700 307.5L720 304.8L740 302.6L760 300.8L780 299.4L800 298.5L820 298.2L840 298.5L860 299.6L880 301.5L900 304.5L920 309.1L940 315.5L941.9 316.3L960 324.7L977.2 335.9L980 338.1L997.1 355.4L1000 359.3L1009.6 375L1018 394.6L1020 400.8L1023.7 414.2L1027.5 433.8L1030 453.3L1031.7 472.9L1032.8 492.5L1033.4 512.1L1033.7 531.7L1033.9 551.3L1034 570.8L1034 590.4L1034 610L1034 629.6L1034.2 649.2L1034.3 668.8L1034.6 688.3L1035 707.9L1035.5 727.5L1036.1 747.1L1036.7 766.7L1037.4 786.3L1038.2 805.8L1038.8 825.4L1039.4 845L1039.7 864.6L1039.7 884.2L1039.2 903.8L1038 923.3L1035.8 942.9L1032.3 962.5L1027.2 982.1L1020 1001.2L1019.8 1001.7L1009.4 1021.3L1000 1035L995.4 1040.8L980 1057.1L976.4 1060.4L960 1073.5L950.4 1080M646 512.1L660 508.2L680 504.5L700 502.6L720 502.6L740 504.6L760 508.8L770 512.1L780 515.7L800 526L808.3 531.7L820 540.9L830.4 551.3L840 562.6L845.7 570.8L856.9 590.4L860 597.1L865.1 610L871.2 629.6L875.7 649.2L878.8 668.8L880 681.2L880.6 688.3L881.2 707.9L880.6 727.5L880 734.2L878.7 747.1L875.5 766.7L870.8 786.3L864.4 805.8L860 816.3L855.5 825.4L843.4 845L840 849.6L826.2 864.6L820 870.3L800.2 884.2L800 884.3L780 893.5L760 899.5L740 902.9L725.1 903.8L720 904L714.7 903.8L700 903L680 900L660 895.2L640 888.5L629.9 884.2L620 879.7L600 868.4L594.3 864.6L580 854.1L569.4 845L560 835.8L550.7 825.4L540 811.3L536.3 805.8L525.4 786.3L520 773.7L517.2 766.7L511.5 747.1L507.9 727.5L506.2 707.9L506.4 688.3L508.5 668.8L512.5 649.2L518.6 629.6L520 626.1L527.2 610L538.4 590.4L540 588.1L553.5 570.8L560 563.8L573.4 551.3L580 545.9L600 532.1L600.8 531.7L620 521.9L640 513.9L646 512.1" stroke-opacity="0.494" stroke-width="1.6"/>
</g>
<path d="M0 251L20 250.6L40 249.8L60 248.8L80 247.5L100 245.9L120 244.1L140 242.2L160 240.1L180 238L200 235.7L220 233.4L240 231.2L260 229L280 226.9L300 224.8L320 223L340 221.3L360 219.8L380 218.5L400 217.5L420 216.7L440 216.2L460 216L480 216L500 216.2L520 216.8L540 217.5L560 218.5L580 219.7L600 221.1L620 222.6L640 224.2L660 225.9L680 227.6L700 229.4L720 231.1L740 232.8L760 234.3L780 235.7L800 237L820 238L840 238.7L860 239.2L880 239.4L900 239.2L920 238.7L940 237.9L960 236.6L980 235L1000 233L1020 230.6L1040 227.9L1060 224.8L1080 221.4L1100 217.6L1120 213.6L1140 209.4L1160 204.9L1180 200.3L1200 195.5L1220 190.7L1240 185.8L1260 181L1280 176.2L1300 171.5L1320 167L1340 162.7L1360 158.7L1380 154.9L1400 151.5L1420 148.5L1440 145.9L1460 143.7L1480 142L1500 140.9L1520 140.2L1540 140L1560 140.4L1580 141.3L1600 142.7L1620 144.6L1640 147.1L1660 150L1680 153.3L1700 157.1L1720 161.2L1740 165.7L1760 170.5L1780 175.6L1800 180.8L1820 186.2L1840 191.8L1860 197.4L1880 203L1900 208.6L1920 214.1L1940 219.4" fill="none" stroke="#7fd8c1" stroke-opacity="0.12" stroke-width="1.2"/><path d="M0 215.6L20 218.7L40 222L60 225.4L80 229.1L100 232.9L120 236.8L140 240.9L160 245.1L180 249.3L200 253.7L220 258.1L240 262.6L260 267.1L280 271.7L300 276.2L320 280.7L340 285.2L360 289.6L380 293.9L400 298.2L420 302.3L440 306.4L460 310.3L480 314L500 317.6L520 321L540 324.2L560 327.2L580 329.9L600 332.5L620 334.8L640 336.9L660 338.7L680 340.2L700 341.5L720 342.5L740 343.2L760 343.7L780 343.8L800 343.7L820 343.4L840 342.7L860 341.8L880 340.6L900 339.2L920 337.5L940 335.5L960 333.4L980 331L1000 328.3L1020 325.5L1040 322.5L1060 319.4L1080 316L1100 312.5L1120 308.9L1140 305.2L1160 301.4L1180 297.4L1200 293.5L1220 289.4L1240 285.4L1260 281.3L1280 277.2L1300 273.1L1320 269.1L1340 265.1L1360 261.2L1380 257.3L1400 253.6L1420 249.9L1440 246.4L1460 243L1480 239.8L1500 236.7L1520 233.8L1540 231L1560 228.5L1580 226.1L1600 224L1620 222L1640 220.2L1660 218.7L1680 217.4L1700 216.2L1720 215.3L1740 214.6L1760 214.2L1780 213.9L1800 213.8L1820 214L1840 214.3L1860 214.8L1880 215.5L1900 216.4L1920 217.4L1940 218.6" fill="none" stroke="#7fd8c1" stroke-opacity="0.18" stroke-width="1.2"/><path d="M0 244.5L20 247.2L40 250.6L60 254.7L80 259.4L100 264.8L120 270.7L140 277.1L160 283.9L180 291.1L200 298.6L220 306.4L240 314.3L260 322.2L280 330.1L300 338L320 345.7L340 353.1L360 360.2L380 367L400 373.3L420 379L440 384.3L460 388.9L480 392.9L500 396.3L520 398.9L540 400.9L560 402.2L580 402.7L600 402.6L620 401.8L640 400.4L660 398.4L680 395.8L700 392.7L720 389.1L740 385.1L760 380.7L780 376L800 371.1L820 366L840 360.8L860 355.5L880 350.2L900 345L920 339.9L940 335L960 330.2L980 325.7L1000 321.4L1020 317.5L1040 313.9L1060 310.6L1080 307.6L1100 305L1120 302.8L1140 300.8L1160 299.2L1180 297.9L1200 296.9L1220 296.1L1240 295.5L1260 295L1280 294.8L1300 294.6L1320 294.5L1340 294.4L1360 294.3L1380 294.1L1400 293.9L1420 293.5L1440 293L1460 292.4L1480 291.6L1500 290.5L1520 289.3L1540 287.9L1560 286.3L1580 284.5L1600 282.6L1620 280.5L1640 278.2L1660 275.9L1680 273.5L1700 271.1L1720 268.7L1740 266.4L1760 264.1L1780 262.1L1800 260.2L1820 258.5L1840 257.2L1860 256.2L1880 255.5L1900 255.2L1920 255.4L1940 256" fill="none" stroke="#7fd8c1" stroke-opacity="0.24" stroke-width="1.2"/><path d="M0 350.3L20 356.6L40 362.9L60 369.3L80 375.6L100 381.8L120 387.8L140 393.7L160 399.3L180 404.7L200 409.8L220 414.5L240 418.8L260 422.6L280 426.1L300 429L320 431.5L340 433.4L360 434.8L380 435.6L400 436L420 435.7L440 435L460 433.6L480 431.8L500 429.5L520 426.7L540 423.4L560 419.7L580 415.6L600 411.2L620 406.4L640 401.4L660 396.1L680 390.6L700 385L720 379.2L740 373.4L760 367.6L780 361.8L800 356.2L820 350.6L840 345.2L860 340.1L880 335.2L900 330.5L920 326.3L940 322.3L960 318.8L980 315.7L1000 313L1020 310.8L1040 309.1L1060 307.8L1080 307L1100 306.7L1120 306.9L1140 307.5L1160 308.6L1180 310.2L1200 312.1L1220 314.5L1240 317.3L1260 320.4L1280 323.8L1300 327.5L1320 331.5L1340 335.6L1360 339.9L1380 344.4L1400 348.9L1420 353.5L1440 358L1460 362.5L1480 366.9L1500 371.2L1520 375.3L1540 379.2L1560 382.8L1580 386.2L1600 389.3L1620 392L1640 394.4L1660 396.4L1680 397.9L1700 399.1L1720 399.9L1740 400.2L1760 400.1L1780 399.6L1800 398.7L1820 397.4L1840 395.6L1860 393.5L1880 391.1L1900 388.3L1920 385.2L1940 381.9" fill="none" stroke="#7fd8c1" stroke-opacity="0.3" stroke-width="1.2"/>

</svg>