<svg xmlns="http://www.w3.org/2000/svg" viewBox="0 0 1200 1200" width="1200" height="1200" preserveAspectRatio="xMidYMid slice">
<defs>
<linearGradient id="a19tflsxs" x1="0" y1="0" x2="0" y2="1"><stop offset="0" stop-color="#eef2ef"/><stop offset="1" stop-color="#e3e9e4"/></linearGradient>
<linearGradient id="a19tflsxf" x1="0" y1="0" x2="0" y2="1"><stop offset="0" stop-color="#fff" stop-opacity="0.25"/><stop offset="0.35" stop-color="#fff" stop-opacity="1"/></linearGradient>
<clipPath id="a19tflsxc"><path d="M0 1200L0 326.5L0 326.5L20 335.4L40 344.3L60 353.1L80 361.6L100 369.8L120 377.6L140 385L160 391.7L180 397.8L200 403.2L220 407.9L240 411.7L260 414.7L280 416.9L300 418.1L320 418.5L340 418.1L360 416.8L380 414.7L400 411.9L420 408.3L440 404.1L460 399.3L480 394L500 388.2L520 382.1L540 375.8L560 369.3L580 362.7L600 356.1L620 349.7L640 343.5L660 337.5L680 332L700 326.8L720 322.2L740 318.2L760 314.8L780 312L800 310L820 308.7L840 308.1L860 308.3L880 309.2L900 310.8L920 313.2L940 316.1L960 319.7L980 323.9L1000 328.6L1020 333.7L1040 339.2L1060 345L1080 351L1100 357.2L1120 363.4L1140 369.6L1160 375.7L1180 381.7L1200 387.4L1220 392.9L1200 1200Z"/></clipPath>
<mask id="a19tflsxm"><rect x="0" y="298.1" width="1200" height="901.9" fill="url(#a19tflsxf)"/></mask>
</defs>
<rect width="1200" height="1200" fill="url(#a19tflsxs)"/>
<path d="M0 416.4L0 181.3L20 180L40 178.9L60 178.1L80 177.6L100 177.5L120 177.7L140 178.2L160 179.1L180 180.3L200 181.8L220 183.7L240 185.7L260 188L280 190.4L300 192.9L320 195.5L340 198.2L360 200.8L380 203.3L400 205.6L420 207.8L440 209.8L460 211.5L480 212.8L500 213.9L520 214.5L540 214.8L560 214.6L580 214.1L600 213.1L620 211.7L640 209.9L660 207.8L680 205.3L700 202.6L720 199.6L740 196.3L760 193L780 189.5L800 186L820 182.5L840 179.1L860 175.9L880 172.8L900 170.1L920 167.6L940 165.5L960 163.9L980 162.6L1000 161.9L1020 161.7L1040 162L1060 162.9L1080 164.3L1100 166.2L1120 168.7L1140 171.7L1160 175.1L1180 179L1200 183.3L1220 187.9L1200 416.4Z" fill="#d9e2dc"/><path d="M0 416.4L0 196L20 197.3L40 199.3L60 201.8L80 204.8L100 208.4L120 212.5L140 217L160 221.9L180 227.2L200 232.7L220 238.5L240 244.5L260 250.5L280 256.7L300 262.8L320 268.9L340 274.8L360 280.6L380 286.1L400 291.3L420 296.1L440 300.5L460 304.4L480 307.8L500 310.7L520 313L540 314.8L560 315.8L580 316.3L600 316.1L620 315.2L640 313.7L660 311.6L680 308.9L700 305.5L720 301.6L740 297.2L760 292.3L780 286.9L800 281.2L820 275.1L840 268.7L860 262.1L880 255.3L900 248.4L920 241.5L940 234.6L960 227.8L980 221.1L1000 214.7L1020 208.6L1040 202.7L1060 197.3L1080 192.3L1100 187.8L1120 183.9L1140 180.5L1160 177.7L1180 175.5L1200 173.9L1220 173L1200 416.4Z" fill="#cdd9d2"/><path d="M0 416.4L0 343.3L20 347.5L40 351.4L60 354.8L80 357.7L100 360L120 361.7L140 362.7L160 363.1L180 362.7L200 361.7L220 360L240 357.5L260 354.4L280 350.6L300 346.3L320 341.4L340 336.1L360 330.3L380 324.1L400 317.7L420 311.2L440 304.5L460 297.8L480 291.2L500 284.8L520 278.5L540 272.7L560 267.2L580 262.2L600 257.7L620 253.7L640 250.4L660 247.8L680 245.8L700 244.6L720 244L740 244.1L760 244.9L780 246.3L800 248.4L820 251L840 254.2L860 257.8L880 261.8L900 266.1L920 270.7L940 275.5L960 280.3L980 285.2L1000 290.1L1020 294.8L1040 299.3L1060 303.6L1080 307.6L1100 311.2L1120 314.4L1140 317.2L1160 319.5L1180 321.4L1200 322.8L1220 323.7L1200 416.4Z" fill="#c0cfc7"/><path d="M0 416.4L0 326.5L20 335.4L40 344.3L60 353.1L80 361.6L100 369.8L120 377.6L140 385L160 391.7L180 397.8L200 403.2L220 407.9L240 411.7L260 414.7L280 416.9L300 418.1L320 418.5L340 418.1L360 416.8L380 414.7L400 411.9L420 408.3L440 404.1L460 399.3L480 394L500 388.2L520 382.1L540 375.8L560 369.3L580 362.7L600 356.1L620 349.7L640 343.5L660 337.5L680 332L700 326.8L720 322.2L740 318.2L760 314.8L780 312L800 310L820 308.7L840 308.1L860 308.3L880 309.2L900 310.8L920 313.2L940 316.1L960 319.7L980 323.9L1000 328.6L1020 333.7L1040 339.2L1060 345L1080 351L1100 357.2L1120 363.4L1140 369.6L1160 375.7L1180 381.7L1200 387.4L1220 392.9L1200 416.4Z" fill="#b3c6bc"/>
<path d="M0 1200L0 326.5L0 326.5L20 335.4L40 344.3L60 353.1L80 361.6L100 369.8L120 377.6L140 385L160 391.7L180 397.8L200 403.2L220 407.9L240 411.7L260 414.7L280 416.9L300 418.1L320 418.5L340 418.1L360 416.8L380 414.7L400 411.9L420 408.3L440 404.1L460 399.3L480 394L500 388.2L520 382.1L540 375.8L560 369.3L580 362.7L600 356.1L620 349.7L640 343.5L660 337.5L680 332L700 326.8L720 322.2L740 318.2L760 314.8L780 312L800 310L820 308.7L840 308.1L860 308.3L880 309.2L900 310.8L920 313.2L940 316.1L960 319.7L980 323.9L1000 328.6L1020 333.7L1040 339.2L1060 345L1080 351L1100 357.2L1120 363.4L1140 369.6L1160 375.7L1180 381.7L1200 387.4L1220 392.9L1200 1200Z" fill="#e6ece8"/>
<g clip-path="url(#a19tflsxc)" mask="url(#a19tflsxm)" fill="none" stroke="#0a6b5b" stroke-linejoin="round" stroke-linecap="round">
<path d="M390.6 298.1L381.2 315.1L377.1 322.1L371.4 332.1L361.1 349.2L360 350.9L350 366.2L342.9 376.8L338.4 383.2L326 400.2L325.7 400.6L312.5 417.2L308.6 422L298 434.2L291.4 441.6L282.4 451.3L274.3 459.7L265.7 468.3L257.1 476.5L247.7 485.3L240 492.3L228.5 502.3L222.9 507.2L208.3 519.3L205.7 521.5L188.6 535.4L187.3 536.3L171.4 549L165.8 553.4L154.3 562.6L144.6 570.4L137.1 576.6L124.1 587.4L120 591.1L105 604.4L102.9 606.5L87.5 621.4L85.7 623.4L72 638.4L68.6 642.7L58.4 655.5L51.4 665.8L46.9 672.5L37.3 689.5L34.3 696.1L29.4 706.5L23.2 723.5L18.5 740.5L17.1 747.3L15.1 757.6L13 774.6L12.1 791.6L12.5 808.6L14.2 825.6L17.1 842.6L17.1 842.7L21.2 859.7L26.7 876.7L33.7 893.7L34.3 894.9L42 910.7L51.4 926.8L52 927.7L63.2 944.7L68.6 951.8L76.1 961.8L85.7 973.2L90.3 978.8L102.9 992.5L105.9 995.8L120 1010.3L122.4 1012.8L137.1 1027.2L139.8 1029.8L154.3 1043.6L157.8 1046.8L171.4 1059.5L176.1 1063.9L188.6 1075.3L194.7 1080.9L205.7 1091L213.3 1097.9L222.9 1106.8L231.8 1114.9L240 1122.7L250.1 1131.9L257.1 1138.7L268.1 1148.9L274.3 1155L285.8 1166L291.4 1171.6L303.2 1183L308.6 1188.5L320.4 1200M564 1200L548.6 1194.7L531.4 1188L519.7 1183L514.3 1180.7L497.1 1172.9L483.4 1166L480 1164.3L462.9 1155.2L452 1148.9L445.7 1145.4L428.6 1135.1L423.7 1131.9L411.4 1124.2L397.6 1114.9L394.3 1112.7L377.1 1100.7L373.3 1097.9L360 1088.3L350.3 1080.9L342.9 1075.2L328.5 1063.9L325.7 1061.6L308.6 1047.4L307.9 1046.8L291.4 1032.7L288.2 1029.8L274.3 1017.1L269.6 1012.8L257.1 1000.7L252.2 995.8L240 983.1L235.9 978.8L222.9 964.1L220.8 961.8L207.1 944.7L205.7 942.9L194.6 927.7L188.6 918.3L183.6 910.7L174.1 893.7L171.4 887.9L166.1 876.7L159.6 859.7L154.6 842.6L154.3 840.9L151.2 825.6L149.3 808.6L149 791.6L150.3 774.6L153.3 757.6L154.3 753.9L157.8 740.5L164 723.5L171.4 707.7L172 706.5L181.4 689.5L188.6 678.6L192.6 672.5L205.2 655.5L205.7 654.8L219 638.4L222.9 634.1L233.9 621.4L240 614.9L249.6 604.4L257.1 596.6L265.8 587.4L274.3 578.7L282.1 570.4L291.4 560.8L298.4 553.4L308.6 542.7L314.4 536.3L325.7 524.2L330 519.3L342.9 505L345.2 502.3L360 485.2L360 485.2L374 468.3L377.1 464.5L387.8 451.3L394.3 443.1L401.2 434.2L411.4 421.2L414.5 417.2L427.7 400.2L428.6 399.1L440.8 383.2L445.7 376.8L454.1 366.2L462.9 355.1L467.7 349.2L480 334.3L481.9 332.1L496.8 315.1L497.1 314.7L512.8 298.1M1010.8 1200L1011.4 1199.8L1028.6 1193.5L1045.7 1186.4L1053.3 1183L1062.9 1178.4L1080 1169.3L1085.7 1166L1097.1 1158.9L1111.6 1148.9L1114.3 1147L1131.4 1133.3L1133 1131.9L1148.6 1117.4L1151.1 1114.9L1165.7 1099.1L1166.7 1097.9L1180.5 1080.9L1182.9 1077.7L1192.8 1063.9L1200 1052.9M1200 787.4L1199 791.6L1194.7 808.6L1190 825.6L1184.8 842.6L1182.9 848.6L1179.5 859.7L1173.8 876.7L1167.4 893.7L1165.7 898L1160.9 910.7L1153.7 927.7L1148.6 938.8L1145.9 944.7L1137.5 961.8L1131.4 972.8L1128.2 978.8L1118 995.8L1114.3 1001.4L1106.7 1012.8L1097.1 1025.6L1093.8 1029.8L1080 1046.1L1079.3 1046.8L1062.9 1063.6L1062.6 1063.9L1045.7 1078.8L1043.1 1080.9L1028.6 1091.8L1019.6 1097.9L1011.4 1103.2L994.3 1113L990.5 1114.9L977.1 1121.5L960 1128.9L952 1131.9L942.9 1135.3L925.7 1140.9L908.6 1145.5L893.2 1148.9L891.4 1149.3L874.3 1152.6L857.1 1155.2L840 1157.2L822.9 1158.5L805.7 1159.3L788.6 1159.5L771.4 1159.1L754.3 1158.3L737.1 1156.9L720 1155L702.9 1152.5L685.7 1149.5L683.1 1148.9L668.6 1146.1L651.4 1142.1L634.3 1137.6L617.1 1132.4L615.6 1131.9L600 1126.9L582.9 1120.8L567.9 1114.9L565.7 1114.1L548.6 1106.9L531.4 1099.1L529 1097.9L514.3 1090.8L497.1 1081.8L495.5 1080.9L480 1072.3L465.7 1063.9L462.9 1062.1L445.7 1051.4L438.8 1046.8L428.6 1040L414.2 1029.8L411.4 1027.8L394.3 1014.9L391.7 1012.8L377.1 1001L371 995.8L360 986.1L352.1 978.8L342.9 969.8L334.8 961.8L325.7 951.9L319.3 944.7L308.6 931.6L305.4 927.7L293.2 910.7L291.4 907.8L282.7 893.7L274.3 877.5L273.9 876.7L266.7 859.7L261.2 842.6L257.5 825.6L257.1 823L255.4 808.6L255 791.6L256.3 774.6L257.1 770L259.3 757.6L263.8 740.5L270 723.5L274.3 714L277.6 706.5L286.5 689.5L291.4 681.3L296.6 672.5L307.7 655.5L308.6 654.3L319.5 638.4L325.7 630.2L332 621.4L342.9 607.1L344.8 604.4L357.9 587.4L360 584.8L371 570.4L377.1 562.6L384.1 553.4L394.3 540.4L397.3 536.3L410.4 519.3L411.4 518L423.3 502.3L428.6 495.6L436.3 485.3L445.7 473.2L449.5 468.3L462.7 451.3L462.9 451.1L476.2 434.2L480 429.5L490 417.2L497.1 408.7L504.4 400.2L514.3 389L519.6 383.2L531.4 370.5L535.7 366.2L548.6 353.4L553.2 349.2L565.7 337.8L572.5 332.1L582.9 323.7L594.4 315.1L600 311.1L617.1 299.8L620.1 298.1M1047 298.1L1062.9 306.7L1076.8 315.1L1080 317.2L1097.1 329L1101.3 332.1L1114.3 342.7L1121.7 349.2L1131.4 358.5L1139 366.2L1148.6 377.2L1153.6 383.2L1165.7 399.6L1166.1 400.2L1176.9 417.2L1182.9 428.2L1186.1 434.2L1194 451.3L1200 466.5M715.5 366.2L720 364.5L737.1 359.3L754.3 355.2L771.4 352.3L788.6 350.3L805.7 349.4L822.9 349.5L840 350.6L857.1 352.6L874.3 355.7L891.4 359.9L908.6 365.2L911.2 366.2L925.7 371.7L942.9 379.6L949.7 383.2L960 389L977.1 400.1L977.2 400.2L994.3 413.5L998.5 417.2L1011.4 429.7L1015.8 434.2L1028.6 449.5L1030 451.3L1041.8 468.3L1045.7 474.9L1051.7 485.3L1059.9 502.3L1062.9 509.6L1066.8 519.3L1072.5 536.3L1077.1 553.4L1080 566.2L1080.9 570.4L1084 587.4L1086.4 604.4L1088.1 621.4L1089.2 638.4L1089.9 655.5L1090 672.5L1089.7 689.5L1088.9 706.5L1087.6 723.5L1085.9 740.5L1083.6 757.6L1080.8 774.6L1080 778.5L1077.5 791.6L1073.7 808.6L1069.2 825.6L1063.8 842.6L1062.9 845.3L1057.9 859.7L1051 876.7L1045.7 888L1043 893.7L1034.1 910.7L1028.6 919.8L1023.7 927.7L1011.7 944.7L1011.4 945.2L997.9 961.8L994.3 965.8L981.6 978.8L977.1 983L962 995.8L960 997.4L942.9 1009.5L937.5 1012.8L925.7 1019.8L908.6 1028.3L904.8 1029.8L891.4 1035.4L874.3 1041.2L857.1 1045.7L851.4 1046.8L840 1049.2L822.9 1051.7L805.7 1053.2L788.6 1053.7L771.4 1053.4L754.3 1052.2L737.1 1050.1L720 1047.2L718.6 1046.8L702.9 1043.5L685.7 1039L668.6 1033.7L657.9 1029.8L651.4 1027.5L634.3 1020.5L617.6 1012.8L617.1 1012.6L600 1003.9L585.5 995.8L582.9 994.2L565.7 983.6L558.4 978.8L548.6 971.9L535 961.8L531.4 958.9L514.4 944.7L514.3 944.6L497.1 928.5L496.3 927.7L480.5 910.7L480 910.1L466.7 893.7L462.9 888.2L455 876.7L445.7 860.4L445.3 859.7L437.3 842.6L431.3 825.6L428.6 814.8L427 808.6L424.3 791.6L423.3 774.6L423.7 757.6L425.5 740.5L428.6 724.2L428.7 723.5L432.9 706.5L438.1 689.5L444.4 672.5L445.7 669.3L451.3 655.5L459.1 638.4L462.9 631L467.5 621.4L476.5 604.4L480 598.2L486 587.4L496.2 570.4L497.1 568.8L506.8 553.4L514.3 542.1L518.1 536.3L530 519.3L531.4 517.4L542.7 502.3L548.6 494.8L556.3 485.3L565.7 474.2L570.9 468.3L582.9 455.4L586.9 451.3L600 438.4L604.6 434.2L617.1 423.3L624.7 417.2L634.3 409.8L648 400.2L651.4 397.9L668.6 387.5L676.7 383.2L685.7 378.5L702.9 370.9L715.5 366.2M776 400.2L788.6 398.8L805.7 398.2L822.9 398.8L835.8 400.2L840 400.7L857.1 403.9L874.3 408.4L891.4 414.4L897.9 417.2L908.6 422.1L925.7 431.6L929.8 434.2L942.9 443.4L952.6 451.3L960 457.9L970.4 468.3L977.1 475.9L984.7 485.3L994.3 498.8L996.6 502.3L1006.4 519.3L1011.4 529.7L1014.6 536.3L1021.4 553.4L1027.1 570.4L1028.6 575.6L1031.9 587.4L1035.8 604.4L1038.9 621.4L1041.3 638.4L1043 655.5L1044.2 672.5L1044.7 689.5L1044.7 706.5L1044.1 723.5L1042.9 740.5L1041 757.6L1038.5 774.6L1035.2 791.6L1031.2 808.6L1028.6 817.6L1026.3 825.6L1020.5 842.6L1013.6 859.7L1011.4 864.3L1005.5 876.7L996 893.7L994.3 896.5L984.9 910.7L977.1 921L971.7 927.7L960 940.6L955.9 944.7L942.9 956.6L936.4 961.8L925.7 969.8L911.6 978.8L908.6 980.6L891.4 989.5L876.2 995.8L874.3 996.6L857.1 1002.3L840 1006.5L822.9 1009.5L805.7 1011.3L788.6 1011.9L771.4 1011.5L754.3 1010.1L737.1 1007.6L720 1004.1L702.9 999.5L691.3 995.8L685.7 993.9L668.6 987.3L651.4 979.5L649.9 978.8L634.3 970.6L619.2 961.8L617.1 960.5L600 948.9L594.3 944.7L582.9 935.8L573.2 927.7L565.7 920.8L555.3 910.7L548.6 903.4L539.9 893.7L531.4 882.8L526.8 876.7L515.8 859.7L514.3 856.9L506.6 842.6L499.4 825.6L497.1 818.8L493.8 808.6L489.8 791.6L487.4 774.6L486.5 757.6L486.9 740.5L488.5 723.5L491.4 706.5L495.4 689.5L497.1 683.5L500.3 672.5L506.1 655.5L512.8 638.4L514.3 635.2L520.3 621.4L528.7 604.4L531.4 599.4L537.8 587.4L547.8 570.4L548.6 569.2L558.7 553.4L565.7 543.2L570.6 536.3L582.9 520.2L583.5 519.3L597.8 502.3L600 499.9L613.8 485.3L617.1 481.9L631.8 468.3L634.3 466.1L651.4 452.3L652.8 451.3L668.6 440.3L678.5 434.2L685.7 430L702.9 421.3L712.4 417.2L720 414.1L737.1 408.3L754.3 403.9L771.4 400.7L776 400.2M761.8 451.3L771.4 449.5L788.6 447.8L805.7 447.6L822.9 449L835.9 451.3L840 452L857.1 456.8L874.3 463.4L884.1 468.3L891.4 472.2L908.6 483.4L911 485.3L925.7 497.8L930.3 502.3L942.9 516L945.5 519.3L957.8 536.3L960 539.8L967.8 553.4L976.3 570.4L977.1 572.4L983.2 587.4L989.1 604.4L993.9 621.4L994.3 623.2L997.7 638.4L1000.8 655.5L1003 672.5L1004.5 689.5L1005.2 706.5L1005.2 723.5L1004.4 740.5L1002.8 757.6L1000.3 774.6L997 791.6L994.3 801.9L992.6 808.6L987.1 825.6L980.3 842.6L977.1 849.5L972.2 859.7L962.3 876.7L960 880.1L950.3 893.7L942.9 902.8L935.6 910.7L925.7 920.4L917.2 927.7L908.6 934.5L893 944.7L891.4 945.8L874.3 954.6L857.1 961.6L856.6 961.8L840 966.8L822.9 970.4L805.7 972.6L788.6 973.3L771.4 972.8L754.3 971L737.1 967.9L720 963.5L714.5 961.8L702.9 957.8L685.7 950.8L673.3 944.7L668.6 942.3L651.4 932.2L644.6 927.7L634.3 920.3L622.2 910.7L617.1 906.3L603.8 893.7L600 889.6L588.5 876.7L582.9 869.2L575.9 859.7L565.7 843.1L565.4 842.6L556.9 825.6L550.3 808.6L548.6 802.7L545.3 791.6L541.9 774.6L540 757.6L539.5 740.5L540.3 723.5L542.3 706.5L545.5 689.5L548.6 677.6L549.9 672.5L555.2 655.5L561.6 638.4L565.7 629.1L569.1 621.4L577.6 604.4L582.9 595.1L587.3 587.4L598.1 570.4L600 567.6L610.4 553.4L617.1 544.8L624.2 536.3L634.3 525.2L640.1 519.3L651.4 508.6L658.7 502.3L668.6 494.3L681.3 485.3L685.7 482.3L702.9 472.2L711 468.3L720 464L737.1 457.6L754.3 452.7L761.8 451.3M785.5 553.4L788.6 553.1L791.7 553.4L805.7 554.4L822.9 558.4L840 565.3L848.9 570.4L857.1 575.5L871.6 587.4L874.3 589.8L887.2 604.4L891.4 609.8L899 621.4L908.5 638.4L908.6 638.7L915.5 655.5L921.1 672.5L925.3 689.5L925.7 692.3L927.9 706.5L929.2 723.5L929.2 740.5L927.9 757.6L925.7 771L925.1 774.6L920.6 791.6L914.2 808.6L908.6 820.4L905.7 825.6L894.3 842.6L891.4 846.2L878.7 859.7L874.3 863.7L857.1 876.2L856.2 876.7L840 884.8L822.9 890.8L808.4 893.7L805.7 894.2L788.6 895.3L771.4 894.4L767.6 893.7L754.3 891.2L737.1 885.9L720 878.3L717 876.7L702.9 867.8L692 859.7L685.7 854.1L674.3 842.6L668.6 835.6L661.1 825.6L651.4 809.4L651 808.6L643.6 791.6L638.4 774.6L635.1 757.6L634.3 748.7L633.6 740.5L633.8 723.5L634.3 718.7L635.6 706.5L639.1 689.5L644.2 672.5L650.9 655.5L651.4 654.3L659.7 638.4L668.6 624.1L670.4 621.4L684 604.4L685.7 602.5L701.5 587.4L702.9 586.2L720 573.9L726.2 570.4L737.1 564.7L754.3 558.3L771.4 554.4L785.5 553.4M756.7 621.4L771.4 617.2L788.6 615.8L805.7 618.1L815.1 621.4L822.9 624.5L840 635.5L843.2 638.4L857.1 653.2L858.8 655.5L869.2 672.5L874.3 683.4L876.6 689.5L881.3 706.5L884 723.5L884.6 740.5L883 757.6L879.3 774.6L874.3 788.6L873 791.6L862.7 808.6L857.1 815.7L847 825.6L840 831.2L822.9 840.8L817.4 842.6L805.7 846L788.6 847.6L771.4 846.1L758.3 842.6L754.3 841.4L737.1 832.7L727.1 825.6L720 819.5L709.9 808.6L702.9 798.7L698.6 791.6L691.1 774.6L686.5 757.6L685.7 751.4L684.5 740.5L684.9 723.5L685.7 718.1L687.7 706.5L692.9 689.5L700.6 672.5L702.9 668.5L712 655.5L720 646.1L728.4 638.4L737.1 631.6L754.3 622.2L756.7 621.4" stroke-opacity="0.34" stroke-width="1.1"/>
<path d="M713.8 315.1L720 313.1L737.1 308.5L754.3 304.9L771.4 302.2L788.6 300.4L805.7 299.4L822.9 299.2L840 299.7L857.1 301.1L874.3 303.2L891.4 306.1L908.6 309.9L925.7 314.4L927.9 315.1L942.9 319.9L960 326.3L973.7 332.1L977.1 333.7L994.3 342.3L1006.5 349.2L1011.4 352.2L1028.6 363.6L1032.1 366.2L1045.7 377L1052.9 383.2L1062.9 392.7L1070.2 400.2L1080 411.6L1084.6 417.2L1096.8 434.2L1097.1 434.9L1107 451.3L1114.3 465.6L1115.6 468.3L1122.9 485.3L1128.9 502.3L1131.4 511.1L1133.8 519.3L1137.9 536.3L1141 553.4L1143.4 570.4L1145.1 587.4L1146.1 604.4L1146.6 621.4L1146.7 638.4L1146.2 655.5L1145.4 672.5L1144.2 689.5L1142.6 706.5L1140.6 723.5L1138.2 740.5L1135.4 757.6L1132.1 774.6L1131.4 777.8L1128.7 791.6L1124.8 808.6L1120.3 825.6L1115.2 842.6L1114.3 845.6L1109.9 859.7L1103.8 876.7L1097.1 892.9L1096.8 893.7L1089.4 910.7L1080.9 927.7L1080 929.3L1071.5 944.7L1062.9 958.6L1060.8 961.8L1048.8 978.8L1045.7 982.8L1035.1 995.8L1028.6 1003L1019.1 1012.8L1011.4 1020.2L1000.3 1029.8L994.3 1034.8L977.7 1046.8L977.1 1047.3L960 1058.1L949.2 1063.9L942.9 1067.2L925.7 1075.1L910.4 1080.9L908.6 1081.6L891.4 1087.2L874.3 1091.7L857.1 1095.2L840 1097.9L840 1097.9L822.9 1099.9L805.7 1101L788.6 1101.4L771.4 1101.1L754.3 1100L737.1 1098.3L734.3 1097.9L720 1096L702.9 1093L685.7 1089.3L668.6 1085L654.6 1080.9L651.4 1080L634.3 1074.4L617.1 1068.2L606.5 1063.9L600 1061.2L582.9 1053.7L568.6 1046.8L565.7 1045.5L548.6 1036.6L536.4 1029.8L531.4 1027L514.3 1016.7L508.2 1012.8L497.1 1005.5L483.1 995.8L480 993.6L462.9 980.6L460.6 978.8L445.7 966.4L440.3 961.8L428.6 950.8L422.2 944.7L411.4 933.4L406.2 927.7L394.3 913.3L392.2 910.7L380 893.7L377.1 889L369.8 876.7L361.4 859.7L360 855.9L354.9 842.6L350.2 825.6L347.2 808.6L346 791.6L346.4 774.6L348.4 757.6L351.9 740.5L356.8 723.5L360 714.7L362.9 706.5L370 689.5L377.1 674.7L378.1 672.5L387 655.5L394.3 642.6L396.5 638.4L406.6 621.4L411.4 613.7L417 604.4L427.9 587.4L428.6 586.4L439 570.4L445.7 560.5L450.4 553.4L462.1 536.3L462.9 535.3L474 519.3L480 511.1L486.3 502.3L497.1 487.9L499.1 485.3L512.4 468.3L514.3 465.9L526.3 451.3L531.4 445.2L541 434.2L548.6 425.9L556.8 417.2L565.7 408.2L574 400.2L582.9 391.9L593 383.2L600 377.3L614.5 366.2L617.1 364.2L634.3 352.5L639.7 349.2L651.4 342.1L668.6 333.2L670.8 332.1L685.7 325.3L702.9 318.7L713.8 315.1M760 502.3L771.4 500.1L788.6 498.6L805.7 499.1L822.9 501.5L825.8 502.3L840 506.2L857.1 513.2L868.4 519.3L874.3 522.8L891.4 535.6L892.2 536.3L908.6 552.5L909.3 553.4L922.5 570.4L925.7 575L933.2 587.4L942 604.4L942.9 606.2L949.1 621.4L954.9 638.4L959.6 655.5L960 657.1L963.2 672.5L965.7 689.5L967.3 706.5L967.9 723.5L967.5 740.5L966 757.6L963.5 774.6L960 790.8L959.8 791.6L954.7 808.6L948.2 825.6L942.9 837L940 842.6L929.6 859.7L925.7 865.1L916.4 876.7L908.6 885.2L899.4 893.7L891.4 900.4L876.4 910.7L874.3 912.1L857.1 920.8L840 927.4L838.7 927.7L822.9 931.8L805.7 934.4L788.6 935.3L771.4 934.6L754.3 932.3L737.1 928.4L734.9 927.7L720 922.8L702.9 915.5L693.7 910.7L685.7 906.2L668.6 894.8L667.1 893.7L651.4 880.5L647.3 876.7L634.3 862.8L631.6 859.7L619 842.6L617.1 839.6L608.9 825.6L601 808.6L600 805.7L595.1 791.6L590.8 774.6L588.2 757.6L587.2 740.5L587.5 723.5L589.2 706.5L592.2 689.5L596.5 672.5L600 661.9L602.1 655.5L609.1 638.4L617.1 621.7L617.3 621.4L627.1 604.4L634.3 593.5L638.6 587.4L651.4 571L652 570.4L668.1 553.4L668.6 552.9L685.7 538L688 536.3L702.9 526L714.5 519.3L720 516.3L737.1 508.9L754.3 503.5L760 502.3" stroke-opacity="0.646" stroke-width="1.6"/>
</g>
<path d="M0 181.3L20 180L40 178.9L60 178.1L80 177.6L100 177.5L120 177.7L140 178.2L160 179.1L180 180.3L200 181.8L220 183.7L240 185.7L260 188L280 190.4L300 192.9L320 195.5L340 198.2L360 200.8L380 203.3L400 205.6L420 207.8L440 209.8L460 211.5L480 212.8L500 213.9L520 214.5L540 214.8L560 214.6L580 214.1L600 213.1L620 211.7L640 209.9L660 207.8L680 205.3L700 202.6L720 199.6L740 196.3L760 193L780 189.5L800 186L820 182.5L840 179.1L860 175.9L880 172.8L900 170.1L920 167.6L940 165.5L960 163.9L980 162.6L1000 161.9L1020 161.7L1040 162L1060 162.9L1080 164.3L1100 166.2L1120 168.7L1140 171.7L1160 175.1L1180 179L1200 183.3L1220 187.9" fill="none" stroke="#0a6b5b" stroke-opacity="0.12" stroke-width="1.2"/><path d="M0 196L20 197.3L40 199.3L60 201.8L80 204.8L100 208.4L120 212.5L140 217L160 221.9L180 227.2L200 232.7L220 238.5L240 244.5L260 250.5L280 256.7L300 262.8L320 268.9L340 274.8L360 280.6L380 286.1L400 291.3L420 296.1L440 300.5L460 304.4L480 307.8L500 310.7L520 313L540 314.8L560 315.8L580 316.3L600 316.1L620 315.2L640 313.7L660 311.6L680 308.9L700 305.5L720 301.6L740 297.2L760 292.3L780 286.9L800 281.2L820 275.1L840 268.7L860 262.1L880 255.3L900 248.4L920 241.5L940 234.6L960 227.8L980 221.1L1000 214.7L1020 208.6L1040 202.7L1060 197.3L1080 192.3L1100 187.8L1120 183.9L1140 180.5L1160 177.7L1180 175.5L1200 173.9L1220 173" fill="none" stroke="#0a6b5b" stroke-opacity="0.18" stroke-width="1.2"/><path d="M0 343.3L20 347.5L40 351.4L60 354.8L80 357.7L100 360L120 361.7L140 362.7L160 363.1L180 362.7L200 361.7L220 360L240 357.5L260 354.4L280 350.6L300 346.3L320 341.4L340 336.1L360 330.3L380 324.1L400 317.7L420 311.2L440 304.5L460 297.8L480 291.2L500 284.8L520 278.5L540 272.7L560 267.2L580 262.2L600 257.7L620 253.7L640 250.4L660 247.8L680 245.8L700 244.6L720 244L740 244.1L760 244.9L780 246.3L800 248.4L820 251L840 254.2L860 257.8L880 261.8L900 266.1L920 270.7L940 275.5L960 280.3L980 285.2L1000 290.1L1020 294.8L1040 299.3L1060 303.6L1080 307.6L1100 311.2L1120 314.4L1140 317.2L1160 319.5L1180 321.4L1200 322.8L1220 323.7" fill="none" stroke="#0a6b5b" stroke-opacity="0.24" stroke-width="1.2"/><path d="M0 326.5L20 335.4L40 344.3L60 353.1L80 361.6L100 369.8L120 377.6L140 385L160 391.7L180 397.8L200 403.2L220 407.9L240 411.7L260 414.7L280 416.9L300 418.1L320 418.5L340 418.1L360 416.8L380 414.7L400 411.9L420 408.3L440 404.1L460 399.3L480 394L500 388.2L520 382.1L540 375.8L560 369.3L580 362.7L600 356.1L620 349.7L640 343.5L660 337.5L680 332L700 326.8L720 322.2L740 318.2L760 314.8L780 312L800 310L820 308.7L840 308.1L860 308.3L880 309.2L900 310.8L920 313.2L940 316.1L960 319.7L980 323.9L1000 328.6L1020 333.7L1040 339.2L1060 345L1080 351L1100 357.2L1120 363.4L1140 369.6L1160 375.7L1180 381.7L1200 387.4L1220 392.9" fill="none" stroke="#0a6b5b" stroke-opacity="0.3" stroke-width="1.2"/>
<g transform="translate(817.9 807) scale(1 0.62) rotate(13.9)"><circle r="295.6" fill="none" stroke="#0a6b5b" stroke-opacity="0.35" stroke-width="1.2" stroke-dasharray="3 7" vector-effect="non-scaling-stroke"/><rect x="-295.6" y="-13.8" width="591.2" height="27.6" rx="2" fill="#c3cfca" fill-opacity="0.9"/><line x1="-286.1" y1="0" x2="286.1" y2="0" stroke="#0c2b2a" stroke-opacity="0.5" stroke-width="1.2" stroke-dasharray="10 10" vector-effect="non-scaling-stroke"/><rect x="-235.4" y="-121.4" width="89.4" height="96.8" rx="3" fill="#f7f9f8" fill-opacity="0.72" stroke="#0c2b2a" stroke-opacity="0.45" stroke-width="1.5" vector-effect="non-scaling-stroke"/><rect x="-140" y="-121.4" width="89.4" height="96.8" rx="3" fill="#f7f9f8" fill-opacity="0.72" stroke="#0c2b2a" stroke-opacity="0.45" stroke-width="1.5" vector-effect="non-scaling-stroke"/><rect x="-44.7" y="-121.4" width="89.4" height="96.8" rx="3" fill="#f7f9f8" fill-opacity="0.72" stroke="#0c2b2a" stroke-opacity="0.45" stroke-width="1.5" vector-effect="non-scaling-stroke"/><rect x="50.7" y="-121.4" width="89.4" height="96.8" rx="3" fill="#f7f9f8" fill-opacity="0.72" stroke="#0c2b2a" stroke-opacity="0.45" stroke-width="1.5" vector-effect="non-scaling-stroke"/><rect x="146" y="-121.4" width="89.4" height="96.8" rx="3" fill="#f7f9f8" fill-opacity="0.72" stroke="#0c2b2a" stroke-opacity="0.45" stroke-width="1.5" vector-effect="non-scaling-stroke"/><rect x="-235.4" y="24.6" width="89.4" height="96.8" rx="3" fill="#0a6b5b" fill-opacity="0.9" stroke="#0c2b2a" stroke-opacity="0" stroke-width="1.5" vector-effect="non-scaling-stroke"/><rect x="-140" y="24.6" width="89.4" height="96.8" rx="3" fill="#f7f9f8" fill-opacity="0.72" stroke="#0c2b2a" stroke-opacity="0.45" stroke-width="1.5" vector-effect="non-scaling-stroke"/><rect x="-44.7" y="24.6" width="89.4" height="96.8" rx="3" fill="#f7f9f8" fill-opacity="0.72" stroke="#0c2b2a" stroke-opacity="0.45" stroke-width="1.5" vector-effect="non-scaling-stroke"/><rect x="50.7" y="24.6" width="89.4" height="96.8" rx="3" fill="#0a6b5b" fill-opacity="0.9" stroke="#0c2b2a" stroke-opacity="0" stroke-width="1.5" vector-effect="non-scaling-stroke"/><rect x="146" y="24.6" width="89.4" height="96.8" rx="3" fill="#f7f9f8" fill-opacity="0.72" stroke="#0c2b2a" stroke-opacity="0.45" stroke-width="1.5" vector-effect="non-scaling-stroke"/></g>
</svg>