<svg xmlns="http://www.w3.org/2000/svg" viewBox="0 0 1600 900" width="1600" height="900" preserveAspectRatio="xMidYMid slice">
<defs>
<linearGradient id="a141kwsvs" x1="0" y1="0" x2="0" y2="1"><stop offset="0" stop-color="#0b2221"/><stop offset="1" stop-color="#10302d"/></linearGradient>
<linearGradient id="a141kwsvf" x1="0" y1="0" x2="0" y2="1"><stop offset="0" stop-color="#fff" stop-opacity="0.25"/><stop offset="0.35" stop-color="#fff" stop-opacity="1"/></linearGradient>
<clipPath id="a141kwsvc"><path d="M0 900L0 325.5L0 325.5L20 328.6L40 331L60 332.6L80 333.5L100 333.5L120 332.8L140 331.3L160 329L180 326L200 322.3L220 318L240 313L260 307.5L280 301.6L300 295.2L320 288.6L340 281.7L360 274.7L380 267.6L400 260.6L420 253.8L440 247.1L460 240.8L480 234.8L500 229.4L520 224.4L540 220.1L560 216.4L580 213.5L600 211.2L620 209.8L640 209.2L660 209.3L680 210.3L700 212L720 214.5L740 217.8L760 221.7L780 226.3L800 231.5L820 237.2L840 243.3L860 249.8L880 256.6L900 263.6L920 270.7L940 277.8L960 284.8L980 291.7L1000 298.3L1020 304.6L1040 310.4L1060 315.7L1080 320.5L1100 324.7L1120 328.1L1140 330.9L1160 332.8L1180 334L1200 334.4L1220 334L1240 332.7L1260 330.7L1280 327.9L1300 324.4L1320 320.3L1340 315.5L1360 310.1L1380 304.2L1400 297.9L1420 291.3L1440 284.5L1460 277.4L1480 270.3L1500 263.3L1520 256.3L1540 249.5L1560 243.1L1580 237L1600 231.3L1620 226.2L1600 900Z"/></clipPath>
<mask id="a141kwsvm"><rect x="0" y="199.2" width="1600" height="700.8" fill="url(#a141kwsvf)"/></mask>
</defs>
<rect width="1600" height="900" fill="url(#a141kwsvs)"/>
<path d="M0 316.7L0 96.2L20 97.6L40 99.3L60 101.5L80 104.1L100 107.1L120 110.4L140 114.1L160 118.1L180 122.2L200 126.6L220 131.2L240 135.8L260 140.4L280 145.1L300 149.6L320 154L340 158.3L360 162.3L380 166.1L400 169.6L420 172.7L440 175.5L460 178L480 180L500 181.7L520 183L540 183.9L560 184.5L580 184.7L600 184.6L620 184.3L640 183.7L660 182.9L680 181.9L700 180.8L720 179.7L740 178.6L760 177.4L780 176.4L800 175.4L820 174.6L840 174L860 173.5L880 173.3L900 173.4L920 173.7L940 174.3L960 175.1L980 176.2L1000 177.5L1020 179L1040 180.7L1060 182.6L1080 184.6L1100 186.7L1120 188.8L1140 190.9L1160 193L1180 194.9L1200 196.7L1220 198.3L1240 199.7L1260 200.7L1280 201.5L1300 201.9L1320 201.9L1340 201.5L1360 200.7L1380 199.5L1400 197.8L1420 195.7L1440 193.2L1460 190.3L1480 187L1500 183.4L1520 179.4L1540 175.2L1560 170.8L1580 166.2L1600 161.5L1620 156.8L1600 316.7Z" fill="#133431"/><path d="M0 316.7L0 162L20 159L40 156.1L60 153.4L80 151L100 148.9L120 147.2L140 145.8L160 144.7L180 144.1L200 144L220 144.3L240 145.1L260 146.4L280 148.1L300 150.3L320 153L340 156L360 159.5L380 163.4L400 167.6L420 172.1L440 176.9L460 181.8L480 187L500 192.2L520 197.5L540 202.7L560 207.9L580 213L600 217.9L620 222.6L640 227L660 231.2L680 234.9L700 238.2L720 241.2L740 243.6L760 245.6L780 247.1L800 248.1L820 248.5L840 248.5L860 248L880 247L900 245.5L920 243.6L940 241.3L960 238.6L980 235.6L1000 232.3L1020 228.7L1040 225L1060 221L1080 217L1100 212.9L1120 208.9L1140 204.8L1160 200.8L1180 197L1200 193.3L1220 189.8L1240 186.5L1260 183.5L1280 180.7L1300 178.2L1320 176.1L1340 174.2L1360 172.6L1380 171.4L1400 170.4L1420 169.7L1440 169.3L1460 169.2L1480 169.2L1500 169.4L1520 169.8L1540 170.3L1560 171L1580 171.6L1600 172.3L1620 173L1600 316.7Z" fill="#163b37"/><path d="M0 316.7L0 160.6L20 165.4L40 170.8L60 176.8L80 183.3L100 190.1L120 197.3L140 204.6L160 212.2L180 219.8L200 227.3L220 234.8L240 242L260 248.9L280 255.5L300 261.7L320 267.4L340 272.5L360 277.1L380 281L400 284.3L420 287L440 289.1L460 290.5L480 291.2L500 291.4L520 291.1L540 290.2L560 288.9L580 287.3L600 285.3L620 283L640 280.6L660 278.1L680 275.5L700 273L720 270.6L740 268.4L760 266.4L780 264.6L800 263.2L820 262.2L840 261.5L860 261.3L880 261.5L900 262L920 263L940 264.3L960 266L980 268L1000 270.3L1020 272.7L1040 275.3L1060 278L1080 280.7L1100 283.3L1120 285.7L1140 288L1160 289.9L1180 291.5L1200 292.7L1220 293.4L1240 293.5L1260 293.1L1280 292L1300 290.3L1320 287.9L1340 284.9L1360 281.2L1380 276.8L1400 271.8L1420 266.2L1440 260.1L1460 253.4L1480 246.4L1500 238.9L1520 231.2L1540 223.3L1560 215.3L1580 207.2L1600 199.2L1620 191.4L1600 316.7Z" fill="#19423e"/><path d="M0 316.7L0 325.5L20 328.6L40 331L60 332.6L80 333.5L100 333.5L120 332.8L140 331.3L160 329L180 326L200 322.3L220 318L240 313L260 307.5L280 301.6L300 295.2L320 288.6L340 281.7L360 274.7L380 267.6L400 260.6L420 253.8L440 247.1L460 240.8L480 234.8L500 229.4L520 224.4L540 220.1L560 216.4L580 213.5L600 211.2L620 209.8L640 209.2L660 209.3L680 210.3L700 212L720 214.5L740 217.8L760 221.7L780 226.3L800 231.5L820 237.2L840 243.3L860 249.8L880 256.6L900 263.6L920 270.7L940 277.8L960 284.8L980 291.7L1000 298.3L1020 304.6L1040 310.4L1060 315.7L1080 320.5L1100 324.7L1120 328.1L1140 330.9L1160 332.8L1180 334L1200 334.4L1220 334L1240 332.7L1260 330.7L1280 327.9L1300 324.4L1320 320.3L1340 315.5L1360 310.1L1380 304.2L1400 297.9L1420 291.3L1440 284.5L1460 277.4L1480 270.3L1500 263.3L1520 256.3L1540 249.5L1560 243.1L1580 237L1600 231.3L1620 226.2L1600 316.7Z" fill="#1d4a45"/>
<path d="M0 900L0 325.5L0 325.5L20 328.6L40 331L60 332.6L80 333.5L100 333.5L120 332.8L140 331.3L160 329L180 326L200 322.3L220 318L240 313L260 307.5L280 301.6L300 295.2L320 288.6L340 281.7L360 274.7L380 267.6L400 260.6L420 253.8L440 247.1L460 240.8L480 234.8L500 229.4L520 224.4L540 220.1L560 216.4L580 213.5L600 211.2L620 209.8L640 209.2L660 209.3L680 210.3L700 212L720 214.5L740 217.8L760 221.7L780 226.3L800 231.5L820 237.2L840 243.3L860 249.8L880 256.6L900 263.6L920 270.7L940 277.8L960 284.8L980 291.7L1000 298.3L1020 304.6L1040 310.4L1060 315.7L1080 320.5L1100 324.7L1120 328.1L1140 330.9L1160 332.8L1180 334L1200 334.4L1220 334L1240 332.7L1260 330.7L1280 327.9L1300 324.4L1320 320.3L1340 315.5L1360 310.1L1380 304.2L1400 297.9L1420 291.3L1440 284.5L1460 277.4L1480 270.3L1500 263.3L1520 256.3L1540 249.5L1560 243.1L1580 237L1600 231.3L1620 226.2L1600 900Z" fill="#0e2826"/>
<g clip-path="url(#a141kwsvc)" mask="url(#a141kwsvm)" fill="none" stroke="#7fd8c1" stroke-linejoin="round" stroke-linecap="round">
<path d="M11.8 199.2L8.3 215.5L5.2 231.8L2.5 248.1L0.1 264.4L0 264.7M0 491.8L0.1 492.5L3 508.8L6.4 525.1L10.3 541.4L14.8 557.7L16.7 563.6L19.8 574L25.2 590.3L31.3 606.6L33.3 611.5L37.8 622.9L44.7 639.2L50 650.7L52.1 655.5L59.8 671.8L66.7 685.4L68 688.1L76.2 704.4L83.3 717.6L84.9 720.7L93.6 737L100 748.5L102.5 753.3L111.5 769.6L116.7 778.7L120.6 785.9L129.7 802.2L133.3 808.6L138.7 818.5L147.9 834.8L150 838.5L156.9 851.1L166.1 867.4L166.7 868.4L175 883.7L183.3 898.5L184.2 900M111.1 199.2L106.5 215.5L102.4 231.8L100 243L98.9 248.1L95.9 264.4L93.5 280.7L91.5 297L90 313.2L88.9 329.5L88.3 345.8L88.2 362.1L88.4 378.4L89.1 394.7L90.2 411L91.7 427.3L93.7 443.6L96.1 459.9L98.9 476.2L100 481.6L102.1 492.5L105.6 508.8L109.6 525.1L114.1 541.4L116.7 550.2L118.8 557.7L123.9 574L129.3 590.3L133.3 601.4L135.2 606.6L141.2 622.9L147.6 639.2L150 645L154.2 655.5L161 671.8L166.7 684.5L168.2 688.1L175.5 704.4L183.1 720.7L183.3 721.2L190.7 737L198.7 753.3L200 756L206.6 769.6L214.9 785.9L216.7 789.3L223.2 802.2L231.8 818.5L233.3 821.4L240.4 834.8L249.4 851.1L250 852.3L258.3 867.4L266.7 881.9L267.7 883.7L277.1 900M1527.2 900L1533.3 893.7L1543.2 883.7L1550 876.6L1559 867.4L1566.7 859.4L1574.6 851.1L1583.3 841.8L1590 834.8L1600 824M350.2 900L350 899.7L339.6 883.7L333.3 873.6L329.5 867.4L319.8 851.1L316.7 845.6L310.4 834.8L301.5 818.5L300 815.7L292.7 802.2L284.4 785.9L283.3 783.9L276.1 769.6L268.3 753.3L266.7 749.8L260.6 737L253.3 720.7L250 713.1L246.2 704.4L239.3 688.1L233.3 673.3L232.7 671.8L226.3 655.5L220.2 639.2L216.7 629L214.5 622.9L208.9 606.6L203.7 590.3L200 577.8L198.8 574L194.2 557.7L189.9 541.4L186.1 525.1L183.3 512.3L182.6 508.8L179.3 492.5L176.6 476.2L174.2 459.9L172.2 443.6L170.7 427.3L169.6 411L169 394.7L168.8 378.4L169.1 362.1L170 345.8L171.3 329.5L173.2 313.2L175.7 297L178.9 280.7L182.6 264.4L183.3 261.8L187.1 248.1L192.4 231.8L198.4 215.5L200 211.7L205.4 199.2M1430.8 900L1433.3 897.4L1446.7 883.7L1450 880.3L1462.3 867.4L1466.7 862.7L1477.5 851.1L1483.3 844.7L1492.4 834.8L1500 826.3L1506.9 818.5L1516.7 807.2L1521 802.2L1533.3 787.5L1534.7 785.9L1547.9 769.6L1550 766.9L1560.7 753.3L1566.7 745.2L1572.8 737L1583.3 722.1L1584.3 720.7L1595.2 704.4L1600 696.7M476.4 900L466.7 888.7L462.5 883.7L450 867.9L449.6 867.4L437.6 851.1L433.3 845.1L426.3 834.8L416.7 819.9L415.8 818.5L405.8 802.2L400 792.2L396.4 785.9L387.6 769.6L383.3 761.4L379.2 753.3L371.3 737L366.7 726.9L363.8 720.7L356.8 704.4L350.2 688.1L350 687.7L343.9 671.8L338.1 655.5L333.3 641.3L332.6 639.2L327.5 622.9L322.8 606.6L318.6 590.3L316.7 582.1L314.7 574L311.2 557.7L308.1 541.4L305.5 525.1L303.4 508.8L301.6 492.5L300.4 476.2L300 466.7L299.7 459.9L299.5 443.6L299.8 427.3L300 424.2L300.7 411L302.3 394.7L304.5 378.4L307.4 362.1L311.1 345.8L315.6 329.5L316.7 326.4L321 313.2L327.5 297L333.3 284.1L335 280.7L343.8 264.4L350 254.2L353.9 248.1L365.7 231.8L366.7 230.5L379.3 215.5L383.3 211.1L395.2 199.2M1471.4 199.2L1482.9 215.5L1483.3 216.1L1493.2 231.8L1500 243.9L1502.3 248.1L1510.4 264.4L1516.7 278.7L1517.5 280.7L1523.8 297L1529.3 313.2L1533.3 327.4L1533.9 329.5L1537.9 345.8L1541.2 362.1L1543.7 378.4L1545.6 394.7L1546.8 411L1547.4 427.3L1547.3 443.6L1546.6 459.9L1545.2 476.2L1543.1 492.5L1540.3 508.8L1536.9 525.1L1533.3 539.1L1532.7 541.4L1528 557.7L1522.5 574L1516.7 589.3L1516.3 590.3L1509.5 606.6L1501.9 622.9L1500 626.7L1493.7 639.2L1484.8 655.5L1483.3 658.1L1475.4 671.8L1466.7 685.7L1465.2 688.1L1454.5 704.4L1450 710.8L1443.1 720.7L1433.3 734L1431.1 737L1418.6 753.3L1416.7 755.8L1405.6 769.6L1400 776.3L1391.9 785.9L1383.3 795.8L1377.7 802.2L1366.7 814.4L1363 818.5L1350 832.3L1347.6 834.8L1333.3 849.3L1331.5 851.1L1316.7 865.6L1314.8 867.4L1300 881.2L1297.3 883.7L1283.3 896.2L1278.9 900M538.4 900L533.3 895.2L521.8 883.7L516.7 878.4L506.6 867.4L500 859.8L492.8 851.1L483.3 839.2L480 834.8L468.2 818.5L466.7 816.3L457.2 802.2L450 790.8L447 785.9L437.4 769.6L433.3 762.1L428.5 753.3L420.2 737L416.7 729.6L412.5 720.7L405.2 704.4L400 691.7L398.5 688.1L392.2 671.8L386.5 655.5L383.3 645.8L381.2 639.2L376.3 622.9L371.9 606.6L368 590.3L366.7 583.8L364.6 574L361.6 557.7L359.1 541.4L357.1 525.1L355.7 508.8L354.7 492.5L354.4 476.2L354.6 459.9L355.5 443.6L357 427.3L359.2 411L362.1 394.7L365.9 378.4L366.7 375.9L370.6 362.1L376.2 345.8L383 329.5L383.3 328.7L390.9 313.2L400.1 297L410.9 280.7L416.7 272.9L423.4 264.4L433.3 253L437.9 248.1L450 236.2L454.9 231.8L466.7 221.8L474.7 215.5L483.3 209.2L498.1 199.2M1394.5 199.2L1400 204.6L1410.1 215.5L1416.7 223.2L1423.6 231.8L1433.3 245.1L1435.4 248.1L1445.6 264.4L1450 272.1L1454.6 280.7L1462.4 297L1466.7 307.3L1469.1 313.2L1474.8 329.5L1479.6 345.8L1483.3 361.3L1483.5 362.1L1486.6 378.4L1489 394.7L1490.5 411L1491.3 427.3L1491.3 443.6L1490.6 459.9L1489.2 476.2L1487.1 492.5L1484.2 508.8L1483.3 512.7L1480.6 525.1L1476.4 541.4L1471.4 557.7L1466.7 571.2L1465.7 574L1459.3 590.3L1452.3 606.6L1450 611.4L1444.5 622.9L1436.1 639.2L1433.3 644.2L1427 655.5L1417.3 671.8L1416.7 672.7L1406.9 688.1L1400 698.3L1395.9 704.4L1384.2 720.7L1383.3 721.9L1372 737L1366.7 743.7L1359.1 753.3L1350 764.2L1345.5 769.6L1333.3 783.6L1331.3 785.9L1316.7 801.9L1316.4 802.2L1300.8 818.5L1300 819.3L1284.3 834.8L1283.3 835.8L1267 851.1L1266.7 851.4L1250 866.2L1248.7 867.4L1233.3 880.3L1229.1 883.7L1216.7 893.6L1208.2 900M605 900L600 896.3L584 883.7L583.3 883.1L566.7 868.4L565.6 867.4L550 852.1L549.1 851.1L534.1 834.8L533.3 833.9L520.6 818.5L516.7 813.5L508.2 802.2L500 790.6L496.8 785.9L486.3 769.6L483.3 764.7L476.6 753.3L467.7 737L466.7 735.1L459.4 720.7L451.8 704.4L450 700.1L444.9 688.1L438.5 671.8L433.3 657.3L432.7 655.5L427.4 639.2L422.8 622.9L418.6 606.6L416.7 597.8L415 590.3L411.9 574L409.4 557.7L407.5 541.4L406.2 525.1L405.4 508.8L405.3 492.5L405.9 476.2L407.1 459.9L409.1 443.6L411.9 427.3L415.6 411L416.7 407.2L420.2 394.7L425.8 378.4L432.5 362.1L433.3 360.4L440.5 345.8L449.9 329.5L450 329.3L460.8 313.2L466.7 305.6L473.6 297L483.3 286.1L488.6 280.7L500 269.8L506.1 264.4L516.7 255.6L526.6 248.1L533.3 243.3L550 232.3L551 231.8L566.7 222.6L580.2 215.5L583.3 213.9L600 206L615.8 199.2M1304.2 199.2L1316.7 207.5L1327.4 215.5L1333.3 220.2L1346.6 231.8L1350 235L1362.8 248.1L1366.7 252.4L1376.6 264.4L1383.3 273.4L1388.5 280.7L1398.6 297L1400 299.5L1407.3 313.2L1414.6 329.5L1416.7 334.9L1420.8 345.8L1425.8 362.1L1429.8 378.4L1432.9 394.7L1433.3 397.9L1435.1 411L1436.4 427.3L1436.8 443.6L1436.4 459.9L1435.2 476.2L1433.3 491.8L1433.2 492.5L1430.5 508.8L1427 525.1L1422.8 541.4L1417.8 557.7L1416.7 560.8L1412 574L1405.6 590.3L1400 603L1398.4 606.6L1390.5 622.9L1383.3 636.6L1382 639.2L1372.7 655.5L1366.7 665.4L1362.7 671.8L1352.1 688.1L1350 691.1L1340.7 704.4L1333.3 714.5L1328.7 720.7L1316.7 736.1L1315.9 737L1302.5 753.3L1300 756.2L1288.2 769.6L1283.3 775L1273.1 785.9L1266.7 792.6L1257.2 802.2L1250 809.2L1240.2 818.5L1233.3 824.9L1222.2 834.8L1216.7 839.6L1202.9 851.1L1200 853.4L1183.3 866.4L1182 867.4L1166.7 878.6L1159.3 883.7L1150 890L1134.3 900M827.8 231.8L833.3 230.8L850 228.1L866.7 225.9L883.3 223.9L900 222.3L916.7 220.9L933.3 219.9L950 219.3L966.7 218.9L983.3 218.9L1000 219.3L1016.7 220L1033.3 221.1L1050 222.7L1066.7 224.7L1083.3 227.2L1100 230.2L1107.4 231.8L1116.7 233.8L1133.3 238.2L1150 243.2L1163.9 248.1L1166.7 249.1L1183.3 256L1200 263.9L1200.9 264.4L1216.7 273.3L1228.2 280.7L1233.3 284.2L1249.9 297L1250 297.1L1266.7 312.7L1267.2 313.2L1281.4 329.5L1283.3 332.1L1293 345.8L1300 357.6L1302.6 362.1L1310.3 378.4L1316.4 394.7L1316.7 395.5L1321.1 411L1324.5 427.3L1326.7 443.6L1327.8 459.9L1327.8 476.2L1326.9 492.5L1324.9 508.8L1322.1 525.1L1318.3 541.4L1316.7 547.1L1313.6 557.7L1308.1 574L1301.7 590.3L1300 594.2L1294.5 606.6L1286.4 622.9L1283.3 628.6L1277.5 639.2L1267.8 655.5L1266.7 657.2L1257.1 671.8L1250 682L1245.6 688.1L1233.3 704.3L1233.2 704.4L1219.8 720.7L1216.7 724.3L1205.3 737L1200 742.6L1189.6 753.3L1183.3 759.5L1172.7 769.6L1166.7 775.1L1154.3 785.9L1150 789.5L1134.1 802.2L1133.3 802.8L1116.7 815L1111.6 818.5L1100 826.3L1086.4 834.8L1083.3 836.7L1066.7 846.1L1057.1 851.1L1050 854.7L1033.3 862.5L1021.8 867.4L1016.7 869.5L1000 875.7L983.3 881.2L974.8 883.7L966.7 886L950 890L933.3 893.3L916.7 895.9L900 897.8L883.3 899L866.7 899.5L850 899.3L833.3 898.3L816.7 896.6L800 894.1L783.3 890.8L766.7 886.8L756.3 883.7L750 881.8L733.3 875.9L716.7 869L713.2 867.4L700 861L683.3 851.9L681.9 851.1L666.7 841.5L657 834.8L650 829.7L635.9 818.5L633.3 816.3L617.8 802.2L616.7 801.1L601.9 785.9L600 783.8L587.9 769.6L583.3 763.8L575.5 753.3L566.7 740.7L564.2 737L554.2 720.7L550 713.1L545.3 704.4L537.3 688.1L533.3 679.2L530.2 671.8L523.9 655.5L518.4 639.2L516.7 633.1L513.8 622.9L509.9 606.6L506.7 590.3L504.3 574L502.7 557.7L501.9 541.4L501.9 525.1L502.7 508.8L504.4 492.5L507.1 476.2L510.8 459.9L515.6 443.6L516.7 440.5L521.6 427.3L528.9 411L533.3 402.6L537.7 394.7L548.1 378.4L550 375.8L560.6 362.1L566.7 355.1L575.2 345.8L583.3 337.9L592.6 329.5L600 323.4L613.2 313.2L616.7 310.8L633.3 299.8L638 297L650 290.1L666.7 281.4L668.2 280.7L683.3 273.7L700 266.7L706 264.4L716.7 260.4L733.3 254.8L750 249.6L755.6 248.1L766.7 245L783.3 240.9L800 237.1L816.7 233.8L827.8 231.8M911.7 264.4L916.7 264L933.3 263.1L950 262.7L966.7 262.7L983.3 263.1L1000 263.9L1005.7 264.4L1016.7 265.2L1033.3 267.1L1050 269.5L1066.7 272.5L1083.3 276.2L1100 280.6L1100.3 280.7L1116.7 285.9L1133.3 292.1L1144.7 297L1150 299.4L1166.7 308.1L1175.4 313.2L1183.3 318.4L1198.5 329.5L1200 330.7L1216.6 345.8L1216.7 345.9L1231 362.1L1233.3 365.3L1242.4 378.4L1250 391.7L1251.6 394.7L1258.7 411L1264.1 427.3L1266.7 437.8L1268 443.6L1270.4 459.9L1271.6 476.2L1271.5 492.5L1270.3 508.8L1268.1 525.1L1266.7 532.1L1264.8 541.4L1260.4 557.7L1255.1 574L1250 587.3L1248.8 590.3L1241.6 606.6L1233.4 622.9L1233.3 623.1L1224.2 639.2L1216.7 651.3L1214 655.5L1202.8 671.8L1200 675.6L1190.5 688.1L1183.3 696.9L1177 704.4L1166.7 716L1162.3 720.7L1150 733.2L1146.1 737L1133.3 748.8L1128.3 753.3L1116.7 763.1L1108.5 769.6L1100 776.1L1086.3 785.9L1083.3 787.9L1066.7 798.6L1060.7 802.2L1050 808.4L1033.3 817.2L1030.5 818.5L1016.7 825L1000 831.9L992.3 834.8L983.3 838L966.7 843.3L950 847.7L934.6 851.1L933.3 851.4L916.7 854.2L900 856.2L883.3 857.4L866.7 857.9L850 857.5L833.3 856.3L816.7 854.2L800 851.3L799.1 851.1L783.3 847.4L766.7 842.5L750 836.7L745.5 834.8L733.3 829.6L716.7 821.4L711.4 818.5L700 811.8L685.4 802.2L683.3 800.8L666.7 788L664.2 785.9L650 773.2L646.2 769.6L633.3 756.1L630.8 753.3L617.3 737L616.7 736.1L605.7 720.7L600 712L595.3 704.4L586.3 688.1L583.3 682.2L578.4 671.8L571.6 655.5L566.7 641.9L565.7 639.2L560.9 622.9L557 606.6L553.9 590.3L551.8 574L550.6 557.7L550.4 541.4L551.2 525.1L552.9 508.8L555.8 492.5L559.8 476.2L565 459.9L566.7 455.7L571.7 443.6L579.8 427.3L583.3 421.4L589.8 411L600 396.8L601.6 394.7L615.8 378.4L616.7 377.6L632.8 362.1L633.3 361.7L650 348.3L653.4 345.8L666.7 336.8L678.3 329.5L683.3 326.6L700 317.7L709.2 313.2L716.7 309.8L733.3 302.8L748.8 297L750 296.5L766.7 291L783.3 286.1L800 281.7L804.3 280.7L816.7 277.8L833.3 274.4L850 271.5L866.7 269L883.3 266.9L900 265.2L911.7 264.4M875.9 313.2L883.3 312.3L900 310.6L916.7 309.4L933.3 308.8L950 308.7L966.7 309.1L983.3 310.1L1000 311.7L1011.6 313.2L1016.7 314L1033.3 317L1050 320.7L1066.7 325.3L1079.5 329.5L1083.3 330.9L1100 337.8L1116.7 345.8L1116.7 345.8L1133.3 355.9L1142.3 362.1L1150 368.2L1161.6 378.4L1166.7 383.6L1176.5 394.7L1183.3 404.1L1187.9 411L1196.7 427.3L1200 435.2L1203.3 443.6L1207.8 459.9L1210.8 476.2L1212.1 492.5L1212.1 508.8L1210.7 525.1L1208 541.4L1204.2 557.7L1200 571.4L1199.2 574L1193 590.3L1185.7 606.6L1183.3 611.2L1177.2 622.9L1167.6 639.2L1166.7 640.6L1156.6 655.5L1150 664.5L1144.4 671.8L1133.3 685.1L1130.7 688.1L1116.7 703.2L1115.5 704.4L1100 719.1L1098.3 720.7L1083.3 733.4L1078.8 737L1066.7 746.1L1056.4 753.3L1050 757.6L1033.3 767.8L1030.1 769.6L1016.7 776.8L1000 784.8L997.4 785.9L983.3 791.7L966.7 797.6L951.5 802.2L950 802.6L933.3 806.6L916.7 809.7L900 811.9L883.3 813.2L866.7 813.5L850 812.9L833.3 811.3L816.7 808.7L800 805.1L789.7 802.2L783.3 800.3L766.7 794.3L750 787.1L747.7 785.9L733.3 778.2L719.2 769.6L716.7 767.9L700 755.6L697.2 753.3L683.3 741L679.2 737L666.7 723.7L664.1 720.7L651.2 704.4L650 702.6L640.4 688.1L633.3 675.9L631.1 671.8L623.3 655.5L616.7 639.2L611.5 622.9L607.4 606.6L604.3 590.3L602.5 574L601.7 557.7L602.2 541.4L603.8 525.1L606.7 508.8L611 492.5L616.6 476.2L616.7 476.1L624 459.9L633.1 443.6L633.3 443.3L644.5 427.3L650 420.6L658.3 411L666.7 402.6L675.1 394.7L683.3 387.8L695.6 378.4L700 375.4L716.7 364.8L721.2 362.1L733.3 355.6L750 347.6L753.9 345.8L766.7 340.6L783.3 334.5L798.7 329.5L800 329.2L816.7 324.6L833.3 320.7L850 317.3L866.7 314.5L875.9 313.2M866.4 427.3L866.7 427.3L883.3 424.4L900 422.6L916.7 422L933.3 422.5L950 424.2L966.7 427.1L967.5 427.3L983.3 431.9L1000 438.4L1010.5 443.6L1016.7 447.3L1033.3 459.5L1033.8 459.9L1048.6 476.2L1050 478.4L1058.1 492.5L1064.2 508.8L1066.7 521.8L1067.2 525.1L1067.6 541.4L1066.7 549.2L1065.6 557.7L1061.3 574L1055 590.3L1050 600.1L1046.4 606.6L1035.5 622.9L1033.3 625.6L1021.5 639.2L1016.7 644.1L1004.2 655.5L1000 658.9L983.3 670.9L981.9 671.8L966.7 680.4L950.5 688.1L950 688.4L933.3 694.1L916.7 698.5L900 701.4L883.3 702.7L866.7 702.3L850 700.3L833.3 696.5L816.7 690.9L810.5 688.1L800 682.7L783.3 672.1L783 671.8L766.7 657.2L765.1 655.5L752.1 639.2L750 635.9L742.8 622.9L736 606.6L733.3 596.6L731.8 590.3L729.9 574L730.2 557.7L732.6 541.4L733.3 538.9L737.6 525.1L745.1 508.8L750 500.9L755.8 492.5L766.7 479.9L770.2 476.2L783.3 464.9L790 459.9L800 453.5L816.7 444.2L817.9 443.6L833.3 437.3L850 431.7L866.4 427.3" stroke-opacity="0.26" stroke-width="1.1"/>
<path d="M299 199.2L288.4 215.5L283.3 224.2L279.2 231.8L271.2 248.1L266.7 258.7L264.3 264.4L258.4 280.7L253.4 297L250 310.4L249.3 313.2L245.8 329.5L243.1 345.8L241 362.1L239.6 378.4L238.7 394.7L238.4 411L238.6 427.3L239.3 443.6L240.4 459.9L242 476.2L244.1 492.5L246.6 508.8L249.5 525.1L250 527.5L252.8 541.4L256.4 557.7L260.4 574L264.8 590.3L266.7 596.6L269.5 606.6L274.5 622.9L279.9 639.2L283.3 648.8L285.7 655.5L291.7 671.8L298 688.1L300 692.8L304.7 704.4L311.7 720.7L316.7 731.7L319 737L326.7 753.3L333.3 766.7L334.7 769.6L343.1 785.9L350 798.7L351.9 802.2L361.1 818.5L366.7 827.9L370.8 834.8L380.9 851.1L383.3 854.8L391.6 867.4L400 879.5L402.9 883.7L414.9 900M1542.3 199.2L1550 212.8L1551.4 215.5L1559.7 231.8L1566.7 247.1L1567.1 248.1L1573.8 264.4L1579.8 280.7L1583.3 291.5L1585.1 297L1589.8 313.2L1593.9 329.5L1597.4 345.8L1600 360.1M1351.3 900L1366.7 885.1L1368.1 883.7L1383.3 868.4L1384.3 867.4L1400 851.1L1415.2 834.8L1416.7 833.2L1430 818.5L1433.3 814.7L1444.3 802.2L1450 795.4L1458.1 785.9L1466.7 775.3L1471.4 769.6L1483.3 754.3L1484.1 753.3L1496.4 737L1500 732L1508.1 720.7L1516.7 708.2L1519.2 704.4L1529.8 688.1L1533.3 682.2L1539.7 671.8L1548.8 655.5L1550 653.2L1557.4 639.2L1565.2 622.9L1566.7 619.6L1572.4 606.6L1578.8 590.3L1583.3 577.4L1584.5 574L1589.6 557.7L1594 541.4L1597.7 525.1L1600 512.5M685.1 900L683.3 899.1L666.7 890.3L655.4 883.7L650 880.4L633.3 869.2L630.8 867.4L616.7 856.7L609.9 851.1L600 842.6L591.6 834.8L583.3 826.8L575.3 818.5L566.7 809L560.8 802.2L550 789L547.6 785.9L535.7 769.6L533.3 766.1L525 753.3L516.7 739.6L515.1 737L506.2 720.7L500 708.4L498 704.4L490.7 688.1L484 671.8L483.3 669.9L478.1 655.5L472.8 639.2L468.2 622.9L466.7 616.8L464.2 606.6L460.8 590.3L458.1 574L456.1 557.7L454.7 541.4L454 525.1L454 508.8L454.8 492.5L456.3 476.2L458.7 459.9L462 443.6L466.3 427.3L466.7 426.1L471.6 411L478.1 394.7L483.3 383.5L485.8 378.4L495 362.1L500 354.5L505.9 345.8L516.7 331.9L518.6 329.5L533.3 313.5L533.5 313.2L550 297.9L551.1 297L566.7 284.5L571.9 280.7L583.3 272.8L596.6 264.4L600 262.3L616.7 253L626.4 248.1L633.3 244.7L650 237.2L663.1 231.8L666.7 230.4L683.3 224.2L700 218.5L709.9 215.5L716.7 213.4L733.3 208.7L750 204.4L766.7 200.5L772.8 199.2M1176.4 199.2L1183.3 201.3L1200 207L1216.7 213.6L1221 215.5L1233.3 221.2L1250 229.9L1253.2 231.8L1266.7 240L1278.3 248.1L1283.3 251.8L1298.7 264.4L1300 265.5L1315.5 280.7L1316.7 281.9L1329.5 297L1333.3 302L1341.3 313.2L1350 327.4L1351.2 329.5L1359.4 345.8L1366.3 362.1L1366.7 363.3L1371.7 378.4L1376 394.7L1379.1 411L1381.3 427.3L1382.4 443.6L1382.6 459.9L1381.9 476.2L1380.3 492.5L1377.9 508.8L1374.6 525.1L1370.5 541.4L1366.7 554.2L1365.6 557.7L1359.9 574L1353.5 590.3L1350 598.2L1346.3 606.6L1338.3 622.9L1333.3 632.2L1329.6 639.2L1320.1 655.5L1316.7 661L1309.9 671.8L1300 686.5L1298.9 688.1L1287.1 704.4L1283.3 709.3L1274.5 720.7L1266.7 730.3L1261.1 737L1250 749.6L1246.7 753.3L1233.3 767.6L1231.4 769.6L1216.7 784.3L1215 785.9L1200 799.9L1197.5 802.2L1183.3 814.5L1178.5 818.5L1166.7 828.1L1157.9 834.8L1150 840.7L1135.3 851.1L1133.3 852.5L1116.7 863.4L1110.1 867.4L1100 873.4L1083.3 882.7L1081.5 883.7L1066.7 891.2L1050 899L1047.7 900M887.6 362.1L900 360.9L916.7 359.9L933.3 359.6L950 360L966.7 361.2L974.4 362.1L983.3 363.3L1000 366.3L1016.7 370.2L1033.3 375.2L1042.1 378.4L1050 381.6L1066.7 389.7L1075.6 394.7L1083.3 399.8L1098.2 411L1100 412.7L1114.4 427.3L1116.7 430.2L1126.3 443.6L1133.3 456.6L1135 459.9L1140.9 476.2L1144.7 492.5L1146.5 508.8L1146.5 525.1L1144.9 541.4L1141.7 557.7L1137.1 574L1133.3 584.3L1131 590.3L1123.4 606.6L1116.7 618.9L1114.4 622.9L1103.7 639.2L1100 644.2L1091.2 655.5L1083.3 664.7L1076.8 671.8L1066.7 682L1060.1 688.1L1050 696.9L1040.6 704.4L1033.3 709.8L1017.2 720.7L1016.7 721.1L1000 730.6L987.5 737L983.3 739L966.7 746L950 751.9L945.1 753.3L933.3 756.5L916.7 760L900 762.4L883.3 763.7L866.7 763.8L850 762.8L833.3 760.6L816.7 757.1L803.3 753.3L800 752.3L783.3 745.8L766.7 737.9L765.1 737L750 727.8L740 720.7L733.3 715.5L720.8 704.4L716.7 700.3L705.6 688.1L700 681L693.3 671.8L683.3 655.8L683.2 655.5L675.3 639.2L668.9 622.9L666.7 615.4L664.2 606.6L661.1 590.3L659.3 574L659.1 557.7L660.3 541.4L663.1 525.1L666.7 511.8L667.5 508.8L673.9 492.5L682.2 476.2L683.3 474.4L693 459.9L700 451.1L706.5 443.6L716.7 433.6L723.6 427.3L733.3 419.5L745.2 411L750 407.9L766.7 398.2L773.5 394.7L783.3 390.1L800 383.1L813 378.4L816.7 377.2L833.3 372.4L850 368.4L866.7 365.1L883.3 362.6L887.6 362.1" stroke-opacity="0.494" stroke-width="1.6"/>
</g>
<path d="M0 96.2L20 97.6L40 99.3L60 101.5L80 104.1L100 107.1L120 110.4L140 114.1L160 118.1L180 122.2L200 126.6L220 131.2L240 135.8L260 140.4L280 145.1L300 149.6L320 154L340 158.3L360 162.3L380 166.1L400 169.6L420 172.7L440 175.5L460 178L480 180L500 181.7L520 183L540 183.9L560 184.5L580 184.7L600 184.6L620 184.3L640 183.7L660 182.9L680 181.9L700 180.8L720 179.7L740 178.6L760 177.4L780 176.4L800 175.4L820 174.6L840 174L860 173.5L880 173.3L900 173.4L920 173.7L940 174.3L960 175.1L980 176.2L1000 177.5L1020 179L1040 180.7L1060 182.6L1080 184.6L1100 186.7L1120 188.8L1140 190.9L1160 193L1180 194.9L1200 196.7L1220 198.3L1240 199.7L1260 200.7L1280 201.5L1300 201.9L1320 201.9L1340 201.5L1360 200.7L1380 199.5L1400 197.8L1420 195.7L1440 193.2L1460 190.3L1480 187L1500 183.4L1520 179.4L1540 175.2L1560 170.8L1580 166.2L1600 161.5L1620 156.8" fill="none" stroke="#7fd8c1" stroke-opacity="0.12" stroke-width="1.2"/><path d="M0 162L20 159L40 156.1L60 153.4L80 151L100 148.9L120 147.2L140 145.8L160 144.7L180 144.1L200 144L220 144.3L240 145.1L260 146.4L280 148.1L300 150.3L320 153L340 156L360 159.5L380 163.4L400 167.6L420 172.1L440 176.9L460 181.8L480 187L500 192.2L520 197.5L540 202.7L560 207.9L580 213L600 217.9L620 222.6L640 227L660 231.2L680 234.9L700 238.2L720 241.2L740 243.6L760 245.6L780 247.1L800 248.1L820 248.5L840 248.5L860 248L880 247L900 245.5L920 243.6L940 241.3L960 238.6L980 235.6L1000 232.3L1020 228.7L1040 225L1060 221L1080 217L1100 212.9L1120 208.9L1140 204.8L1160 200.8L1180 197L1200 193.3L1220 189.8L1240 186.5L1260 183.5L1280 180.7L1300 178.2L1320 176.1L1340 174.2L1360 172.6L1380 171.4L1400 170.4L1420 169.7L1440 169.3L1460 169.2L1480 169.2L1500 169.4L1520 169.8L1540 170.3L1560 171L1580 171.6L1600 172.3L1620 173" fill="none" stroke="#7fd8c1" stroke-opacity="0.18" stroke-width="1.2"/><path d="M0 160.6L20 165.4L40 170.8L60 176.8L80 183.3L100 190.1L120 197.3L140 204.6L160 212.2L180 219.8L200 227.3L220 234.8L240 242L260 248.9L280 255.5L300 261.7L320 267.4L340 272.5L360 277.1L380 281L400 284.3L420 287L440 289.1L460 290.5L480 291.2L500 291.4L520 291.1L540 290.2L560 288.9L580 287.3L600 285.3L620 283L640 280.6L660 278.1L680 275.5L700 273L720 270.6L740 268.4L760 266.4L780 264.6L800 263.2L820 262.2L840 261.5L860 261.3L880 261.5L900 262L920 263L940 264.3L960 266L980 268L1000 270.3L1020 272.7L1040 275.3L1060 278L1080 280.7L1100 283.3L1120 285.7L1140 288L1160 289.9L1180 291.5L1200 292.7L1220 293.4L1240 293.5L1260 293.1L1280 292L1300 290.3L1320 287.9L1340 284.9L1360 281.2L1380 276.8L1400 271.8L1420 266.2L1440 260.1L1460 253.4L1480 246.4L1500 238.9L1520 231.2L1540 223.3L1560 215.3L1580 207.2L1600 199.2L1620 191.4" fill="none" stroke="#7fd8c1" stroke-opacity="0.24" stroke-width="1.2"/><path d="M0 325.5L20 328.6L40 331L60 332.6L80 333.5L100 333.5L120 332.8L140 331.3L160 329L180 326L200 322.3L220 318L240 313L260 307.5L280 301.6L300 295.2L320 288.6L340 281.7L360 274.7L380 267.6L400 260.6L420 253.8L440 247.1L460 240.8L480 234.8L500 229.4L520 224.4L540 220.1L560 216.4L580 213.5L600 211.2L620 209.8L640 209.2L660 209.3L680 210.3L700 212L720 214.5L740 217.8L760 221.7L780 226.3L800 231.5L820 237.2L840 243.3L860 249.8L880 256.6L900 263.6L920 270.7L940 277.8L960 284.8L980 291.7L1000 298.3L1020 304.6L1040 310.4L1060 315.7L1080 320.5L1100 324.7L1120 328.1L1140 330.9L1160 332.8L1180 334L1200 334.4L1220 334L1240 332.7L1260 330.7L1280 327.9L1300 324.4L1320 320.3L1340 315.5L1360 310.1L1380 304.2L1400 297.9L1420 291.3L1440 284.5L1460 277.4L1480 270.3L1500 263.3L1520 256.3L1540 249.5L1560 243.1L1580 237L1600 231.3L1620 226.2" fill="none" stroke="#7fd8c1" stroke-opacity="0.3" stroke-width="1.2"/>
<g transform="translate(634.1 479.5) scale(1 0.62) rotate(22)"><circle r="361" fill="none" stroke="#7fd8c1" stroke-opacity="0.35" stroke-width="1.2" stroke-dasharray="3 7" vector-effect="non-scaling-stroke"/><rect x="-349.4" y="-56" width="698.8" height="23.7" rx="2" fill="#2a4a47" fill-opacity="0.9"/><line x1="-339.7" y1="-44.2" x2="339.7" y2="-44.2" stroke="#a7bfb9" stroke-opacity="0.5" stroke-width="1.2" stroke-dasharray="10 10" vector-effect="non-scaling-stroke"/><rect x="-288.1" y="-148.1" width="91" height="82.3" rx="3" fill="#12302e" fill-opacity="0.72" stroke="#a7bfb9" stroke-opacity="0.45" stroke-width="1.5" vector-effect="non-scaling-stroke"/><rect x="-191.1" y="-148.1" width="91" height="82.3" rx="3" fill="#12302e" fill-opacity="0.72" stroke="#a7bfb9" stroke-opacity="0.45" stroke-width="1.5" vector-effect="non-scaling-stroke"/><rect x="-94" y="-148.1" width="91" height="82.3" rx="3" fill="#12302e" fill-opacity="0.72" stroke="#a7bfb9" stroke-opacity="0.45" stroke-width="1.5" vector-effect="non-scaling-stroke"/><rect x="3" y="-148.1" width="91" height="82.3" rx="3" fill="#12302e" fill-opacity="0.72" stroke="#a7bfb9" stroke-opacity="0.45" stroke-width="1.5" vector-effect="non-scaling-stroke"/><rect x="100" y="-148.1" width="91" height="82.3" rx="3" fill="#12302e" fill-opacity="0.72" stroke="#a7bfb9" stroke-opacity="0.45" stroke-width="1.5" vector-effect="non-scaling-stroke"/><rect x="197.1" y="-148.1" width="91" height="82.3" rx="3" fill="#12302e" fill-opacity="0.72" stroke="#a7bfb9" stroke-opacity="0.45" stroke-width="1.5" vector-effect="non-scaling-stroke"/><rect x="-288.1" y="-22.6" width="91" height="82.3" rx="3" fill="#12302e" fill-opacity="0.72" stroke="#a7bfb9" stroke-opacity="0.45" stroke-width="1.5" vector-effect="non-scaling-stroke"/><rect x="-191.1" y="-22.6" width="91" height="82.3" rx="3" fill="#12302e" fill-opacity="0.72" stroke="#a7bfb9" stroke-opacity="0.45" stroke-width="1.5" vector-effect="non-scaling-stroke"/><rect x="-94" y="-22.6" width="91" height="82.3" rx="3" fill="#12302e" fill-opacity="0.72" stroke="#a7bfb9" stroke-opacity="0.45" stroke-width="1.5" vector-effect="non-scaling-stroke"/><rect x="3" y="-22.6" width="91" height="82.3" rx="3" fill="#12302e" fill-opacity="0.72" stroke="#a7bfb9" stroke-opacity="0.45" stroke-width="1.5" vector-effect="non-scaling-stroke"/><rect x="100" y="-22.6" width="91" height="82.3" rx="3" fill="#12302e" fill-opacity="0.72" stroke="#a7bfb9" stroke-opacity="0.45" stroke-width="1.5" vector-effect="non-scaling-stroke"/><rect x="197.1" y="-22.6" width="91" height="82.3" rx="3" fill="#12302e" fill-opacity="0.72" stroke="#a7bfb9" stroke-opacity="0.45" stroke-width="1.5" vector-effect="non-scaling-stroke"/><rect x="-288.1" y="65.7" width="91" height="82.3" rx="3" fill="#12302e" fill-opacity="0.72" stroke="#a7bfb9" stroke-opacity="0.45" stroke-width="1.5" vector-effect="non-scaling-stroke"/><rect x="-191.1" y="65.7" width="91" height="82.3" rx="3" fill="#7fd8c1" fill-opacity="0.9" stroke="#a7bfb9" stroke-opacity="0" stroke-width="1.5" vector-effect="non-scaling-stroke"/><rect x="-94" y="65.7" width="91" height="82.3" rx="3" fill="#12302e" fill-opacity="0.72" stroke="#a7bfb9" stroke-opacity="0.45" stroke-width="1.5" vector-effect="non-scaling-stroke"/><rect x="3" y="65.7" width="91" height="82.3" rx="3" fill="#12302e" fill-opacity="0.72" stroke="#a7bfb9" stroke-opacity="0.45" stroke-width="1.5" vector-effect="non-scaling-stroke"/><rect x="100" y="65.7" width="91" height="82.3" rx="3" fill="#12302e" fill-opacity="0.72" stroke="#a7bfb9" stroke-opacity="0.45" stroke-width="1.5" vector-effect="non-scaling-stroke"/><rect x="197.1" y="65.7" width="91" height="82.3" rx="3" fill="#12302e" fill-opacity="0.72" stroke="#a7bfb9" stroke-opacity="0.45" stroke-width="1.5" vector-effect="non-scaling-stroke"/></g>
</svg>